<svg width="25" height="24" viewBox="0 0 25 24" fill="none" xmlns="http://www.w3.org/2000/svg">
<g clip-path="url(#clip0_36334_25762)">
<path d="M1.89569 10.8624C1.85856 10.8747 1.82211 10.889 1.78649 10.9052C1.62295 10.991 1.48159 11.1137 1.37358 11.2635C1.26556 11.4133 1.19385 11.5861 1.16409 11.7684L1.03929 12.5148C1.00034 12.747 1.03077 12.9856 1.12675 13.2006C1.22273 13.4156 1.38001 13.5975 1.57889 13.7236C1.18931 15.2534 0.971956 16.8219 0.930891 18.4V22.8C0.930891 23.1183 1.05732 23.4235 1.28236 23.6485C1.50741 23.8736 1.81263 24 2.13089 24H5.33089C5.64915 24 5.95438 23.8736 6.17942 23.6485C6.40446 23.4235 6.53089 23.1183 6.53089 22.8V22.17C7.89889 22.6448 12.7045 24 16.7145 24C19.1217 24.0297 21.5024 23.4955 23.6661 22.44C23.9864 22.276 24.2416 22.0083 24.3902 21.6806C24.5387 21.3529 24.5718 20.9846 24.4841 20.6356C24.2137 19.4292 24.3981 17.6056 19.5813 16.806C18.5187 16.5574 17.5195 16.0904 16.6472 15.4347C15.7749 14.779 15.0486 13.9489 14.5145 12.9972C14.6204 12.8447 14.6892 12.6695 14.7154 12.4857C14.7415 12.3018 14.7244 12.1144 14.6653 11.9384L14.3813 11.0872C14.329 10.9311 14.2452 10.7874 14.1351 10.665C14.0251 10.5426 13.891 10.4441 13.7413 10.3756C13.6611 10.3396 13.5771 10.3128 13.4909 10.2956C12.7851 7.35247 12.564 4.31391 12.8365 1.2996C12.8513 1.13437 12.8315 0.967866 12.7783 0.810724C12.7251 0.653583 12.6397 0.509257 12.5277 0.386962C12.4156 0.264667 12.2792 0.167091 12.1273 0.100463C11.9753 0.0338351 11.8112 -0.00037968 11.6453 3.1779e-06H11.6249C9.63049 0.0288032 6.13329 0.405603 5.11889 2.6144L5.11489 2.6168C3.99591 2.06742 2.74868 1.83239 1.50649 1.9368C1.24238 1.95584 0.995178 2.07386 0.814308 2.26726C0.633437 2.46067 0.532221 2.71521 0.530891 2.98C0.529931 3.65927 0.620889 4.33553 0.801291 4.9904C1.3537 6.90808 1.72019 8.87448 1.89569 10.8624ZM1.95329 11.9C1.96377 11.8401 1.98769 11.7834 2.02325 11.7341C2.05881 11.6847 2.10508 11.6441 2.15858 11.6153C2.21209 11.5864 2.27144 11.57 2.33219 11.5674C2.39293 11.5647 2.45348 11.5759 2.50929 11.6L6.33089 13.546L6.51889 14.986L2.06569 13.08C1.98329 13.0448 1.91512 12.9828 1.87211 12.9042C1.8291 12.8256 1.81374 12.7348 1.82849 12.6464L1.95329 11.9ZM6.63689 15.9092L7.10369 19.488C4.62369 18.7844 2.51649 18.2704 1.73969 18.0852C1.80514 16.7278 1.99921 15.3796 2.31929 14.0588L6.63689 15.9092ZM23.3009 21.7276C21.2505 22.726 18.9948 23.2302 16.7145 23.2C12.8145 23.2 8.12809 21.8772 6.79449 21.4148C6.67408 21.3728 6.54537 21.3602 6.41909 21.378C6.29282 21.3958 6.17263 21.4436 6.06855 21.5173C5.96447 21.591 5.87953 21.6885 5.82079 21.8017C5.76205 21.9149 5.73123 22.0405 5.73089 22.168V22.8C5.73089 22.9061 5.68875 23.0078 5.61373 23.0828C5.53872 23.1579 5.43698 23.2 5.33089 23.2H2.13089C2.0248 23.2 1.92306 23.1579 1.84805 23.0828C1.77303 23.0078 1.73089 22.9061 1.73089 22.8V18.906C4.66289 19.6104 8.30609 20.61 11.2045 21.5796C12.9173 22.1408 14.7089 22.4244 16.5113 22.4196C19.1749 22.4196 21.7397 21.7996 23.6625 20.628L23.7061 20.8208C23.7515 20.9955 23.7361 21.1805 23.6625 21.3452C23.5888 21.51 23.4613 21.6449 23.3009 21.7276ZM19.4509 17.5944C21.0909 17.8688 23.0357 18.318 23.4777 19.8064C20.4777 21.772 15.5857 22.1972 11.4597 20.8208C10.3677 20.4556 9.18409 20.0888 7.94369 19.7292L7.43489 15.84L13.8649 13.4708C14.4543 14.5118 15.2564 15.417 16.2188 16.1274C17.1812 16.8379 18.2825 17.3377 19.4509 17.5944ZM13.9061 12.1912C13.9396 12.2895 13.9332 12.3971 13.8883 12.4908C13.8435 12.5845 13.7637 12.6568 13.6661 12.6924L7.33089 15.0272L7.11929 13.4024L13.0909 11.0964C13.1416 11.0755 13.1961 11.0652 13.2509 11.0662C13.3058 11.0673 13.3599 11.0796 13.4097 11.1024C13.4596 11.1252 13.5043 11.158 13.541 11.1988C13.5777 11.2396 13.6055 11.2876 13.6229 11.3396L13.9061 12.1912ZM11.6377 0.800003C11.6935 0.7976 11.7492 0.807538 11.8008 0.829108C11.8524 0.850679 11.8986 0.883352 11.9361 0.924803C11.9741 0.965392 12.003 1.0136 12.0209 1.06622C12.0389 1.11883 12.0454 1.17467 12.0401 1.23C11.7642 4.29941 11.984 7.3932 12.6909 10.3928L7.01089 12.586L5.77089 3.07C5.79961 3.02994 5.8249 2.98752 5.84649 2.9432C6.70729 1.0712 10.1825 0.820803 11.6377 0.800003ZM1.56169 2.7348C2.65482 2.63924 3.75336 2.84277 4.73969 3.3236C4.82301 3.36666 4.91337 3.39443 5.00649 3.4056L6.20369 12.584L2.86449 10.8832L2.85089 10.8764C2.80015 10.8556 2.74802 10.8384 2.69489 10.8248C2.51615 8.7774 2.13973 6.7521 1.57089 4.7772C1.41004 4.19174 1.3293 3.58716 1.33089 2.98C1.33154 2.91762 1.35564 2.85776 1.3984 2.81233C1.44116 2.7669 1.49946 2.73922 1.56169 2.7348Z" fill="black"/>
</g>
<defs>
<clipPath id="clip0_36334_25762">
<rect width="24" height="24" fill="white" transform="translate(0.530884)"/>
</clipPath>
</defs>
</svg>
