<svg width="25" height="24" viewBox="0 0 25 24" fill="none" xmlns="http://www.w3.org/2000/svg">
<path d="M12.0967 10.6299C12.0359 10.0601 11.8955 9.51729 11.7007 9.00575C11.9787 7.38331 12.0712 5.72807 11.9747 4.08477C11.9747 4.08384 11.9746 4.0829 11.9746 4.08196C11.8399 1.79301 9.93832 0 7.64539 0C4.34366 0 1.6575 2.68617 1.6575 5.98804C1.6575 7.14331 1.74581 8.30764 1.91887 9.45031C1.77014 9.86281 1.66542 10.2937 1.61939 10.7415C1.47314 12.1628 1.91662 13.5238 2.93859 14.8014C3.02577 15.3813 3.08821 15.9713 3.12374 16.5562C3.13509 16.7427 3.28991 16.8864 3.47432 16.8864C3.48149 16.8864 3.48871 16.8862 3.49598 16.8857C3.6898 16.874 3.83737 16.7073 3.82555 16.5135C3.80891 16.24 3.78599 15.9655 3.75824 15.6914C3.80198 15.7332 3.84604 15.775 3.89113 15.8165C4.33762 16.2288 5.03675 16.2009 5.44991 15.7541C5.86232 15.3074 5.83433 14.6081 5.38747 14.1954C4.23252 13.1293 3.70312 12.0432 3.81388 10.9672C4.0123 9.03739 6.10339 7.35294 7.20373 6.59258C9.42598 8.48591 9.83225 10.2016 9.90298 10.8641C10.0264 12.0205 9.59009 13.1673 8.60633 14.2727C8.41044 14.4928 8.312 14.776 8.32915 15.0701C8.34631 15.3643 8.47695 15.6341 8.69708 15.83C8.89925 16.0099 9.15964 16.109 9.4302 16.109C9.60654 16.109 9.77843 16.0667 9.93228 15.9881C9.92707 16.1742 9.92407 16.3603 9.92407 16.5454V20.2666C9.92407 21.9375 8.5647 23.2968 6.89385 23.2968C5.22299 23.2968 3.86362 21.9374 3.86362 20.2666V18.0357C3.86362 17.8415 3.70621 17.6841 3.51205 17.6841C3.3179 17.6841 3.16049 17.8415 3.16049 18.0357V20.2666C3.16049 22.3252 4.83529 23.9999 6.89385 23.9999C8.9524 23.9999 10.6272 22.3251 10.6272 20.2666V16.5454C10.6272 16.1111 10.642 15.6715 10.6705 15.2378C11.789 13.7903 12.2689 12.243 12.0967 10.6299ZM7.64539 0.703124C9.56571 0.703124 11.1585 2.20415 11.2725 4.12082C11.2725 4.12171 11.2726 4.12255 11.2726 4.12345C11.346 5.37083 11.3063 6.62516 11.1562 7.86589C10.1157 6.05966 8.53381 4.79371 7.91984 4.34526C7.56027 4.08341 7.08219 4.06204 6.70217 4.29055C5.89025 4.77754 3.7139 6.21547 2.47945 8.27867C2.40117 7.51728 2.36062 6.75064 2.36062 5.98789C2.36062 3.07387 4.73136 0.703124 7.64539 0.703124ZM9.72921 15.2719C9.65337 15.3571 9.54443 15.406 9.43025 15.406C9.33223 15.406 9.23787 15.37 9.16456 15.3048C9.08473 15.2337 9.03739 15.1359 9.03115 15.0292C9.02492 14.9226 9.06059 14.8199 9.13165 14.7401C10.2527 13.4805 10.7475 12.1513 10.6022 10.7895C10.4955 9.7902 10.0489 8.76791 9.27495 7.75086C8.6465 6.92507 7.9347 6.27814 7.44823 5.88088C7.38378 5.82824 7.30494 5.80161 7.22581 5.80161C7.15841 5.80161 7.09081 5.82097 7.0317 5.86007C5.93493 6.58653 3.3576 8.53147 3.11456 10.8952C2.97988 12.2034 3.5842 13.4876 4.91057 14.712C5.07261 14.8616 5.08283 15.1152 4.93354 15.277C4.78363 15.4391 4.53004 15.4494 4.36813 15.2999C2.84652 13.8953 2.15699 12.3859 2.31881 10.8134C2.45113 9.52672 3.15084 8.23428 4.39846 6.97203C5.41175 5.94688 6.50338 5.22974 7.06433 4.89332C7.20195 4.81054 7.37534 4.81851 7.50561 4.91338C8.33858 5.52177 11.0809 7.73745 11.3976 10.7046C11.5678 12.2999 11.0066 13.8366 9.72921 15.2719Z" fill="black"/>
<path d="M23.4414 10.7415C23.3954 10.2938 23.2907 9.86286 23.1419 9.45036C23.315 8.30764 23.4033 7.14331 23.4033 5.98789C23.4032 2.68617 20.7171 0 17.4153 0C15.1224 0 13.2208 1.79301 13.0862 4.08196C13.0862 4.0829 13.0861 4.08379 13.0861 4.08473C12.9896 5.72811 13.082 7.38322 13.3601 9.00575C13.1653 9.51729 13.0249 10.0601 12.9641 10.6299C12.7919 12.243 13.2717 13.7904 14.3903 15.2379C14.4188 15.6716 14.4335 16.1112 14.4335 16.5455V20.2666C14.4335 22.3253 16.1083 24 18.1669 24C20.2255 24 21.9002 22.3252 21.9002 20.2666V17.7668C21.9002 16.7774 21.9753 15.78 22.1225 14.8011C23.1442 13.5236 23.5876 12.1627 23.4414 10.7415ZM13.7881 4.12345C13.7881 4.1226 13.7882 4.12171 13.7882 4.12087C13.9023 2.2042 15.495 0.703124 17.4153 0.703124C20.3294 0.703124 22.7001 3.07387 22.7001 5.98804C22.7001 6.75088 22.66 7.51775 22.5816 8.27933C21.3472 6.2158 19.1706 4.77763 18.3588 4.29074C17.9785 4.06204 17.5004 4.08341 17.1404 4.34554C16.5267 4.7938 14.9447 6.05985 13.9043 7.86627C13.7542 6.62544 13.7147 5.37093 13.7881 4.12345ZM20.6927 15.2999C20.5308 15.4493 20.2772 15.439 20.1276 15.2771C19.978 15.1151 19.9883 14.8616 20.1503 14.712C21.4767 13.4875 22.081 12.2033 21.9463 10.8952C21.8306 9.77004 21.1876 8.61978 20.0351 7.47631C19.8973 7.33958 19.6747 7.34042 19.5379 7.47828C19.4012 7.6161 19.4021 7.8387 19.5399 7.97548C20.574 9.00144 21.1483 10.008 21.2469 10.9672C21.3577 12.0431 20.8283 13.1293 19.6733 14.1955C19.2265 14.6081 19.1985 15.3073 19.6111 15.7544C20.0241 16.2009 20.7233 16.2288 21.1696 15.8166C21.215 15.7746 21.2595 15.7325 21.3036 15.6904C21.2334 16.3807 21.1972 17.0755 21.1972 17.7667V20.2666H21.1971C21.1971 21.9375 19.8377 23.2968 18.1668 23.2968C16.496 23.2968 15.1366 21.9375 15.1366 20.2666V16.5455C15.1366 16.3603 15.1334 16.1742 15.1283 15.988C15.2822 16.0667 15.4541 16.1091 15.6305 16.1091C15.9011 16.1091 16.1614 16.01 16.3636 15.83C16.5837 15.6341 16.7144 15.3643 16.7315 15.0701C16.7487 14.776 16.6503 14.4928 16.4544 14.2727C15.4706 13.1673 15.0344 12.0205 15.1577 10.8641C15.2284 10.2015 15.6348 8.48581 17.857 6.59249C18.0545 6.72885 18.2496 6.87135 18.4395 7.01783C18.5932 7.13647 18.814 7.10797 18.9326 6.95422C19.0512 6.80047 19.0227 6.57974 18.869 6.4611C18.5968 6.25105 18.3142 6.04883 18.0291 5.85997C17.9006 5.77494 17.7318 5.78338 17.6126 5.88079C17.1261 6.27805 16.4143 6.92497 15.7858 7.75077C15.0118 8.76781 14.5653 9.79011 14.4586 10.7894C14.3133 12.1512 14.8081 13.4804 15.9291 14.74C16.0001 14.8198 16.0358 14.9225 16.0296 15.0291C16.0234 15.1358 15.976 15.2336 15.8962 15.3047C15.8229 15.3699 15.7286 15.4058 15.6305 15.4058C15.5164 15.4058 15.4074 15.357 15.3316 15.2718C14.0542 13.8365 13.4929 12.2998 13.6632 10.7044C13.98 7.73727 16.7223 5.52158 17.5548 4.91352C17.6855 4.81837 17.8589 4.8104 17.9969 4.89337C18.5575 5.2296 19.6491 5.94674 20.6624 6.97189C21.91 8.23414 22.6097 9.52662 22.7421 10.8133C22.9039 12.3858 22.2144 13.8952 20.6927 15.2999Z" fill="black"/>
</svg>
