<svg width="25" height="24" viewBox="0 0 25 24" fill="none" xmlns="http://www.w3.org/2000/svg">
<g clip-path="url(#clip0_36334_25758)">
<path d="M23.7309 16.8V16C23.7309 14.36 22.7001 13.2304 21.1057 13.12C20.2197 13.0541 19.3497 12.8489 18.5277 12.512C18.5229 12.512 18.5197 12.5064 18.5149 12.5048H18.5085C17.8287 12.2282 17.186 11.8682 16.5949 11.4332C16.5869 11.4268 16.5821 11.4176 16.5733 11.4116C16.5645 11.4056 16.5557 11.4056 16.5473 11.4008C15.9825 10.9755 15.4689 10.4861 15.0169 9.9424C15.0089 9.92844 15 9.91507 14.9901 9.9024C14.9849 9.8972 14.9781 9.8956 14.9725 9.8908C13.6685 8.33688 12.9467 6.37726 12.9309 4.3488V1.2C12.936 0.887501 12.8171 0.58571 12.6001 0.360772C12.3831 0.135834 12.0858 0.00609842 11.7733 0C11.4973 0.000430659 11.2217 0.0203468 10.9485 0.0596L4.32448 1.2532C4.04903 1.29379 3.79727 1.43185 3.61495 1.64228C3.43263 1.85272 3.33183 2.12157 3.33088 2.4V4.8472C3.33211 5.73117 3.12664 6.60318 2.73088 7.3936C2.65888 7.5592 2.58728 7.7256 2.51768 7.8988C1.93791 9.32606 1.66966 10.8607 1.73088 12.4C1.7283 13.3763 1.86515 14.348 2.13728 15.2856L2.45368 18.1352C2.48098 18.3733 2.57921 18.5977 2.73563 18.7793C2.89205 18.9609 3.09944 19.0913 3.33088 19.1536V20.4C3.33088 20.6122 3.2466 20.8157 3.09657 20.9657C2.94654 21.1157 2.74306 21.2 2.53088 21.2H1.73088C1.41262 21.2 1.1074 21.3264 0.882356 21.5515C0.657312 21.7765 0.530884 22.0817 0.530884 22.4L0.530884 22.8C0.530884 23.1183 0.657312 23.4235 0.882356 23.6485C1.1074 23.8736 1.41262 24 1.73088 24H20.3533C20.9729 23.9979 21.5858 23.8722 22.1562 23.6303C22.7266 23.3884 23.2431 23.0351 23.6753 22.5912C24.216 21.9883 24.52 21.2098 24.5309 20.4C24.5139 19.6131 24.232 18.8549 23.7309 18.248V16.8ZM2.53088 12.4C2.47135 10.9623 2.71984 9.52858 3.25968 8.1948C3.32608 8.0288 3.39528 7.8692 3.46408 7.7104C3.90496 6.82004 4.13321 5.83953 4.13088 4.846V2.4C4.13217 2.312 4.1653 2.22745 4.22413 2.162C4.28297 2.09655 4.36352 2.05463 4.45088 2.044L11.0757 0.8496C11.3068 0.816727 11.5399 0.800153 11.7733 0.8C11.8737 0.805883 11.9676 0.851262 12.0346 0.926215C12.1016 1.00117 12.1362 1.0996 12.1309 1.2V2.0104H11.3309C11.2248 2.0104 11.1231 2.05254 11.048 2.12756C10.973 2.20257 10.9309 2.30431 10.9309 2.4104C10.9309 2.51649 10.973 2.61823 11.048 2.69324C11.1231 2.76826 11.2248 2.8104 11.3309 2.8104H12.1309V4.0104H11.3309C11.2248 4.0104 11.1231 4.05254 11.048 4.12756C10.973 4.20257 10.9309 4.30431 10.9309 4.4104C10.9309 4.51649 10.973 4.61823 11.048 4.69324C11.1231 4.76826 11.2248 4.8104 11.3309 4.8104H12.1425C12.1653 5.24297 12.2188 5.67338 12.3025 6.0984L11.6561 6.2984C11.5646 6.32682 11.4863 6.38713 11.4355 6.46837C11.3848 6.54961 11.3648 6.64637 11.3793 6.74107C11.3939 6.83577 11.4419 6.92211 11.5147 6.98438C11.5875 7.04666 11.6803 7.08073 11.7761 7.0804C11.8168 7.08065 11.8573 7.07458 11.8961 7.0624L12.4933 6.8764C12.6203 7.32179 12.78 7.75723 12.9709 8.1792L12.3129 8.6192C12.2692 8.64835 12.2316 8.68583 12.2024 8.72949C12.1732 8.77315 12.1529 8.82213 12.1426 8.87365C12.1323 8.92517 12.1323 8.97821 12.1425 9.02974C12.1527 9.08128 12.1729 9.1303 12.2021 9.174C12.2312 9.2177 12.2687 9.25524 12.3124 9.28446C12.356 9.31368 12.405 9.33401 12.4565 9.3443C12.5081 9.35459 12.5611 9.35463 12.6126 9.34442C12.6642 9.33421 12.7132 9.31395 12.7569 9.2848L13.3309 8.8992C13.5758 9.34154 13.8542 9.76451 14.1637 10.1644L13.7637 10.562C13.6886 10.6372 13.6464 10.7392 13.6465 10.8455C13.6466 10.9518 13.6889 11.0537 13.7641 11.1288C13.8393 11.2039 13.9413 11.2461 14.0476 11.246C14.1539 11.2459 14.2558 11.2036 14.3309 11.1284L14.6821 10.7776C15.0305 11.1586 15.4079 11.5121 15.8109 11.8348L15.6077 12.138C15.5785 12.1817 15.5581 12.2307 15.5478 12.2822C15.5375 12.3338 15.5375 12.3868 15.5477 12.4384C15.5579 12.4899 15.5782 12.539 15.6073 12.5827C15.6365 12.6264 15.674 12.664 15.7177 12.6932C15.7614 12.7224 15.8104 12.7428 15.8619 12.7531C15.9134 12.7634 15.9665 12.7634 16.0181 12.7532C16.0696 12.743 16.1187 12.7227 16.1624 12.6935C16.2061 12.6644 16.2437 12.6269 16.2729 12.5832L16.4549 12.3112C16.9072 12.6176 17.3846 12.8853 17.8821 13.1112L17.7553 13.4736C17.7204 13.5736 17.7266 13.6834 17.7726 13.7789C17.8185 13.8744 17.9005 13.9477 18.0005 13.9828C18.0429 13.9979 18.0875 14.0056 18.1325 14.0056C18.2154 14.0055 18.2962 13.9797 18.3638 13.9317C18.4313 13.8837 18.4823 13.8158 18.5097 13.7376L18.6245 13.41C19.4066 13.6886 20.2228 13.8602 21.0509 13.92C21.3135 13.9259 21.5721 13.9854 21.8109 14.0948C22.0497 14.2041 22.2636 14.3611 22.4396 14.5561C22.6157 14.751 22.75 14.9799 22.8345 15.2286C22.9189 15.4773 22.9517 15.7406 22.9309 16.0024V16.4524L16.9253 17.2708C15.41 17.48 13.8669 17.2247 12.4997 16.5388L10.7989 15.6892C9.63185 15.1077 8.34599 14.8043 7.04208 14.8028H2.83288C2.63424 14.0172 2.53281 13.2103 2.53088 12.4ZM3.25088 18.0456L2.97968 15.6028H7.04208C8.22215 15.604 9.3859 15.8785 10.4421 16.4048L12.1429 17.2544C13.3062 17.8376 14.5896 18.1414 15.8909 18.1416C16.2735 18.1408 16.6555 18.1141 17.0345 18.0616L22.9309 17.26V18.0564L16.4133 19.0316C14.8986 19.2381 13.3569 18.9827 11.9897 18.2988L10.2865 17.4476C9.24694 16.9279 8.11054 16.6304 6.94968 16.574C6.8956 16.5715 6.84155 16.5799 6.79083 16.5989C6.74011 16.6178 6.69377 16.6469 6.65461 16.6843C6.61545 16.7217 6.58429 16.7667 6.56303 16.8165C6.54176 16.8663 6.53082 16.9199 6.53088 16.974V18C6.53088 18.1061 6.48874 18.2078 6.41373 18.2828C6.33871 18.3579 6.23697 18.4 6.13088 18.4H3.64608C3.54827 18.3995 3.45405 18.3631 3.38122 18.2978C3.3084 18.2325 3.26203 18.1428 3.25088 18.0456ZM21.3309 20.176C21.3307 20.4475 21.2227 20.7079 21.0307 20.8998C20.8387 21.0918 20.5784 21.1998 20.3069 21.2H18.5309C18.3187 21.2 18.1152 21.1157 17.9652 20.9657C17.8152 20.8157 17.7309 20.6122 17.7309 20.4V19.6436L20.6241 19.2104C20.8294 19.275 21.0087 19.4036 21.1359 19.5773C21.263 19.751 21.3314 19.9607 21.3309 20.176ZM14.5309 19.856V20.4C14.5309 20.6122 14.4466 20.8157 14.2966 20.9657C14.1465 21.1157 13.9431 21.2 13.7309 21.2H7.33088C7.11871 21.2 6.91523 21.1157 6.7652 20.9657C6.61517 20.8157 6.53088 20.6122 6.53088 20.4V19.1268C6.76411 19.0443 6.96616 18.8918 7.10936 18.6901C7.25257 18.4884 7.32994 18.2474 7.33088 18V17.404C8.23504 17.499 9.11477 17.7557 9.92808 18.162L11.6321 19.0136C12.5393 19.4676 13.5216 19.7526 14.5309 19.8548V19.856ZM23.0885 22.048C22.7316 22.4117 22.3061 22.7008 21.8365 22.8986C21.367 23.0963 20.8628 23.1988 20.3533 23.2H1.73088C1.6248 23.2 1.52306 23.1579 1.44804 23.0828C1.37303 23.0078 1.33088 22.9061 1.33088 22.8V22.4C1.33088 22.2939 1.37303 22.1922 1.44804 22.1172C1.52306 22.0421 1.6248 22 1.73088 22H2.53088C2.95523 22 3.3622 21.8314 3.66225 21.5314C3.96231 21.2313 4.13088 20.8243 4.13088 20.4V19.2H5.73088V20.4C5.73088 20.8243 5.89945 21.2313 6.19951 21.5314C6.49957 21.8314 6.90654 22 7.33088 22H13.7309C14.1552 22 14.5622 21.8314 14.8623 21.5314C15.1623 21.2313 15.3309 20.8243 15.3309 20.4V19.8992C15.3485 19.8992 15.3657 19.8992 15.3833 19.8992C15.7655 19.899 16.1473 19.8734 16.5261 19.8224L16.9309 19.7632V20.4C16.9309 20.8243 17.0995 21.2313 17.3995 21.5314C17.6996 21.8314 18.1065 22 18.5309 22H20.3069C20.6497 22 20.9855 21.9035 21.2759 21.7213C21.5663 21.5392 21.7995 21.279 21.9488 20.9704C22.098 20.6618 22.1573 20.3174 22.1197 19.9766C22.0822 19.6359 21.9493 19.3127 21.7365 19.044L23.1765 18.8284C23.5227 19.2805 23.7168 19.8307 23.7309 20.4C23.7211 21.0086 23.4932 21.5934 23.0885 22.048Z" fill="black"/>
</g>
<defs>
<clipPath id="clip0_36334_25758">
<rect width="24" height="24" fill="white" transform="translate(0.530884)"/>
</clipPath>
</defs>
</svg>
