<svg width="25" height="24" viewBox="0 0 25 24" fill="none" xmlns="http://www.w3.org/2000/svg">
<g clip-path="url(#clip0_36334_25761)">
<path d="M22.2103 11.608C21.9411 11.554 21.6651 11.5072 21.3751 11.4584C19.4951 11.1384 17.1531 10.7448 12.3971 7.69517C12.2081 7.48768 11.9911 7.30755 11.7523 7.15997L10.2699 5.58317C10.1352 5.44003 9.96757 5.33184 9.78165 5.26794C9.59572 5.20403 9.39703 5.18634 9.20273 5.21637C9.01546 5.24296 8.83762 5.31526 8.68491 5.42688C8.5322 5.5385 8.40932 5.68601 8.32713 5.85637C8.11449 6.24566 8.0144 6.68645 8.03807 7.12939C8.06173 7.57234 8.20822 7.99996 8.46113 8.36437C8.21601 8.74905 7.88025 9.06772 7.4833 9.29242C7.08634 9.51712 6.64031 9.64099 6.18433 9.65317C5.71458 9.62059 5.26069 9.46976 4.86487 9.21471C4.46904 8.95966 4.14413 8.60867 3.92033 8.19437C3.51393 7.51757 3.06793 6.91437 2.54753 7.05517C1.97713 7.21317 1.97713 8.05517 1.97713 8.80037C2.0167 9.82937 1.89152 10.8581 1.60633 11.8476L0.701935 13.6568C0.559186 13.9403 0.504249 14.2599 0.544152 14.5748C0.584055 14.8896 0.716984 15.1855 0.925935 15.4244C1.53033 16.0972 2.82273 16.9512 5.57713 17.2H17.8759C18.6863 17.2018 19.4922 17.0787 20.2651 16.8352C21.5235 16.436 24.5303 15.3224 24.5303 14C24.5303 13.3332 24.0451 11.9752 22.2103 11.608ZM9.04634 6.20637C9.07235 6.15267 9.1113 6.10628 9.15968 6.07137C9.20807 6.03646 9.26437 6.01412 9.32353 6.00637C9.38965 5.99605 9.45729 6.00195 9.52062 6.02355C9.58396 6.04514 9.6411 6.0818 9.68713 6.13037L10.3595 6.84517C9.81683 6.95318 9.32944 7.2487 8.98273 7.67997C8.87599 7.44683 8.82609 7.19169 8.83715 6.93551C8.8482 6.67934 8.9199 6.42944 9.04634 6.20637ZM2.77713 8.79997C2.77307 8.5293 2.78416 8.25861 2.81033 7.98917C2.96776 8.18323 3.10954 8.38948 3.23433 8.60597C3.52719 9.13627 3.94961 9.58373 4.46218 9.90661C4.97475 10.2295 5.56077 10.4172 6.16553 10.4524H6.23993C7.40313 10.4524 8.47393 9.80437 9.26313 8.62077C9.69193 7.97757 10.1407 7.64037 10.5979 7.62077C11.0013 7.63081 11.3843 7.7999 11.6635 8.09117L11.0103 8.95997C10.9467 9.04484 10.9194 9.15152 10.9344 9.25654C10.9494 9.36156 11.0055 9.45632 11.0903 9.51997C11.1752 9.58362 11.2819 9.61095 11.3869 9.59595C11.4919 9.58095 11.5867 9.52484 11.6503 9.43997L12.2979 8.57717C12.5795 8.7545 12.8534 8.92304 13.1195 9.08277L12.6103 9.75997C12.5788 9.80199 12.5559 9.84981 12.5428 9.9007C12.5298 9.95158 12.5269 10.0045 12.5344 10.0565C12.5418 10.1085 12.5594 10.1586 12.5861 10.2038C12.6129 10.249 12.6483 10.2885 12.6903 10.32C12.7324 10.3515 12.7802 10.3744 12.8311 10.3875C12.8819 10.4005 12.9349 10.4034 12.9869 10.3959C13.0389 10.3885 13.0889 10.3709 13.1341 10.3442C13.1793 10.3174 13.2188 10.282 13.2503 10.24L13.8139 9.49077C14.1059 9.65797 14.3871 9.81357 14.6599 9.95957L14.2103 10.56C14.1788 10.602 14.1559 10.6498 14.1428 10.7007C14.1298 10.7516 14.1269 10.8045 14.1344 10.8565C14.1418 10.9085 14.1594 10.9586 14.1861 11.0038C14.2129 11.049 14.2483 11.0885 14.2903 11.12C14.3324 11.1515 14.3802 11.1744 14.4311 11.1875C14.4819 11.2005 14.5349 11.2034 14.5869 11.196C14.6389 11.1885 14.6889 11.1709 14.7341 11.1442C14.7793 11.1174 14.8188 11.082 14.8503 11.04L15.3791 10.3336C15.6867 10.488 15.9811 10.628 16.2639 10.7568L15.8103 11.36C15.7467 11.4448 15.7194 11.5515 15.7344 11.6565C15.7494 11.7616 15.8055 11.8563 15.8903 11.92C15.9752 11.9836 16.0819 12.011 16.1869 11.996C16.2919 11.9809 16.3867 11.9248 16.4503 11.84L17.0191 11.0836C18.3733 11.643 19.7911 12.0337 21.2407 12.2468C21.5207 12.2944 21.7907 12.3396 22.0523 12.3916C22.3455 12.4299 22.627 12.5309 22.8777 12.6878C23.1283 12.8447 23.3422 13.0538 23.5047 13.3008C22.0331 14.1596 19.7203 14.8964 16.6403 14.0152C12.0219 12.6952 10.5531 12.9856 8.69193 13.3524C8.25393 13.4392 7.80114 13.5284 7.27433 13.6036C5.36553 13.8772 3.19673 12.9312 2.21033 12.4284C2.24353 12.2644 2.77713 11.8684 2.77713 8.79997ZM20.0227 16.0728C19.3282 16.2915 18.6041 16.4019 17.8759 16.4H5.61353C3.15393 16.1764 2.03033 15.4544 1.52153 14.888C1.41901 14.769 1.35434 14.6222 1.33582 14.4663C1.31729 14.3103 1.34574 14.1524 1.41753 14.0128L1.85233 13.1428C3.01633 13.7388 5.28233 14.6944 7.38713 14.3944C7.93473 14.3144 8.39833 14.2244 8.84634 14.1364C10.6711 13.7764 11.9879 13.5168 16.4203 14.7828C17.3754 15.0628 18.365 15.2077 19.3603 15.2132C20.8522 15.219 22.3217 14.8506 23.6343 14.1416C23.2459 14.76 21.9399 15.4644 20.0227 16.0728Z" fill="black"/>
</g>
<defs>
<clipPath id="clip0_36334_25761">
<rect width="24" height="24" fill="white" transform="translate(0.530396)"/>
</clipPath>
</defs>
</svg>
