<svg width="25" height="24" viewBox="0 0 25 24" fill="none" xmlns="http://www.w3.org/2000/svg">
<g clip-path="url(#clip0_36334_25756)">
<path d="M1.88635 22.4V23.2C1.88635 23.6419 2.24454 24.0001 2.6864 24.0001H9.88673C10.3286 24.0001 10.6868 23.6419 10.6868 23.2V22.4H12.4869L13.2069 23.36C13.51 23.7618 13.9836 23.9986 14.487 24H22.6873C23.1292 24 23.4874 23.6418 23.4874 23.2V22.3999C23.4865 22.1154 23.3341 21.8529 23.0874 21.7111V20.8119C23.0888 19.9173 22.5905 19.0967 21.7961 18.6854L21.6705 18.6194C21.6465 18.2049 21.4065 17.8335 21.0385 17.6413L20.33 17.2649C19.9563 17.0697 19.5076 17.0849 19.148 17.3049L17.9827 16.6949C17.9689 16.301 17.7625 15.939 17.4307 15.7265L16.7566 15.296C16.3366 15.0258 15.7925 15.0464 15.3941 15.3476L14.8769 15.0768C15.014 14.8776 15.0872 14.6414 15.0869 14.3996V13.5995C15.0857 13.1803 14.8652 12.7923 14.5057 12.5767L14.9921 10.7994H15.0869C15.7496 10.7994 16.287 10.2621 16.287 9.59933V8.79933C16.2861 8.42023 16.1054 8.06401 15.8001 7.83928L16.0561 6.89963C16.2082 6.34297 15.9417 5.757 15.4221 5.50598L15.5309 5.07157C15.7624 4.15971 15.2429 3.22545 14.3461 2.94105C12.7852 2.39451 11.3481 1.54411 10.1179 0.438937C9.65412 0.0355128 9.01556 -0.101368 8.42721 0.0765303C7.83881 0.254429 7.38311 0.722169 7.22055 1.31498L6.65413 3.38868C6.3836 3.35755 6.11064 3.42116 5.88169 3.56869C5.60333 3.74945 5.41264 4.03783 5.35526 4.36471C4.66476 8.30745 3.69942 12.1971 2.46632 16.0052C2.30075 16.4947 2.46838 17.0351 2.88193 17.3449C2.47766 18.0266 2.2714 18.8074 2.28631 19.5998C2.27684 20.2931 2.43275 20.9788 2.74111 21.5999H2.68631C2.24454 21.5999 1.88635 21.9581 1.88635 22.4ZM2.6864 23.2V22.3999H9.88673V23.2H2.6864ZM22.6873 23.2H14.4869C14.2353 23.1992 13.9985 23.0808 13.8469 22.8799L13.4869 22.3999H22.6873V23.2ZM19.7672 17.9249C19.8323 17.9247 19.8965 17.9407 19.954 17.9714L20.6624 18.3481C20.7606 18.4005 20.8326 18.4913 20.861 18.5988C20.8895 18.7064 20.8719 18.821 20.8124 18.915L20.2444 19.8134C20.1524 19.9592 19.9774 20.0297 19.81 19.9882L18.9916 19.7854C18.8673 19.7545 18.7655 19.6659 18.7175 19.5472C18.6696 19.4285 18.6813 19.294 18.7491 19.1854L19.4292 18.1126C19.5021 17.9961 19.6298 17.9253 19.7672 17.9249ZM16.0234 15.9161C16.1272 15.8923 16.2363 15.9115 16.3258 15.9693L17.0002 16.3997C17.1858 16.5182 17.2407 16.7644 17.1231 16.9505L15.6146 19.3338C15.5226 19.4792 15.348 19.5494 15.181 19.5083L14.3621 19.3058C14.2373 19.275 14.1348 19.186 14.0869 19.0666C14.0389 18.9473 14.0513 18.8121 14.1202 18.7034L15.7726 16.0921C15.8293 16.0021 15.9199 15.9387 16.0238 15.9161H16.0234ZM9.75392 14.7996C9.58184 14.7995 9.42911 14.6892 9.37469 14.526L9.10786 13.7259C9.06727 13.604 9.08766 13.4701 9.16271 13.3659C9.23771 13.2616 9.35823 13.1997 9.48668 13.1995H13.8869C14.1078 13.1995 14.2869 13.3786 14.2869 13.5995V14.3995C14.2869 14.6205 14.1078 14.7996 13.8869 14.7996L9.75392 14.7996ZM15.487 9.59938C15.487 9.82031 15.3079 9.99938 15.087 9.99938H10.954C10.7819 9.99924 10.6292 9.88903 10.5748 9.72576L10.308 8.92571C10.2674 8.80383 10.2878 8.6699 10.3628 8.56565C10.4378 8.46139 10.5583 8.39951 10.6868 8.39928H15.087C15.3079 8.39928 15.487 8.57835 15.487 8.79928V9.59938ZM7.99266 1.52419C8.08243 1.19685 8.33406 0.938553 8.65892 0.840158C8.98378 0.74181 9.33644 0.817189 9.59271 1.03976C10.9065 2.21858 12.4416 3.12457 14.1085 3.7051C14.6008 3.86364 14.8842 4.3784 14.755 4.87914L14.6517 5.29236L7.4366 3.55908L7.99266 1.52419ZM3.22441 16.2625C4.4697 12.4176 5.44465 8.49041 6.14214 4.50956C6.16075 4.39912 6.22436 4.30133 6.31774 4.23955C6.41027 4.18062 6.52292 4.16225 6.62933 4.18873L14.8341 6.15921C14.8385 6.15921 14.8417 6.16362 14.8457 6.16479C14.8535 6.1661 14.8614 6.16704 14.8692 6.1676L14.9916 6.19718C15.0969 6.22245 15.1874 6.28934 15.2425 6.38249C15.2976 6.47568 15.3126 6.5872 15.284 6.69159L15.0364 7.59923H10.6866C10.3009 7.59913 9.93862 7.78449 9.713 8.09734C9.48738 8.41025 9.42593 8.8125 9.54781 9.17847L9.81463 9.97852C9.97795 10.469 10.437 10.7997 10.9539 10.7993H14.1624L13.7244 12.3994H9.48663C9.10088 12.3993 8.73861 12.5847 8.51299 12.8975C8.28737 13.2104 8.22592 13.6127 8.3478 13.9786L8.61462 14.7787C8.77794 15.2691 9.23696 15.5998 9.75388 15.5995H10.1463C9.39185 16.2219 8.73965 16.9588 8.2134 17.7832C7.89248 18.2849 7.2505 18.4727 6.70973 18.2232L3.65198 16.8356C3.64959 16.8356 3.64678 16.8356 3.64438 16.8335C3.64199 16.8315 3.63637 16.8288 3.63159 16.8268L3.45917 16.7595C3.26037 16.6837 3.15682 16.4643 3.22441 16.2625ZM3.08641 19.5998C3.06597 18.9271 3.24705 18.2636 3.60641 17.6945L6.37615 18.9538C6.63782 19.0734 6.92208 19.1355 7.20976 19.1358C7.88808 19.1347 8.51904 18.7879 8.88342 18.2158C9.55217 17.1303 10.4833 16.2307 11.5911 15.5997H13.8868C13.9617 15.5991 14.0362 15.5916 14.1097 15.5772L14.8929 15.9869L13.444 18.2758C13.2376 18.6018 13.2006 19.0071 13.3444 19.3651C13.4883 19.7231 13.7955 19.9901 14.17 20.0826L14.9889 20.2846C15.4907 20.4095 16.016 20.1978 16.2909 19.7598L17.7406 17.4689L18.6018 17.9197L18.0738 18.7542C17.8675 19.0801 17.8303 19.4854 17.9741 19.8434C18.1179 20.2014 18.425 20.4684 18.7994 20.5611L19.6179 20.7635C20.1195 20.8876 20.6442 20.6766 20.9203 20.2399L21.4471 19.4079C21.9646 19.6852 22.2875 20.2248 22.2872 20.8119V21.6H3.67406C3.26698 21.0143 3.06076 20.3125 3.08641 19.5998Z" fill="black"/>
<path d="M6.68663 17.1997C7.34937 17.1997 7.88668 16.6624 7.88668 15.9996C7.88668 15.3369 7.34937 14.7996 6.68663 14.7996C6.02388 14.7996 5.48657 15.3369 5.48657 15.9996C5.48657 16.6624 6.02388 17.1997 6.68663 17.1997ZM6.68663 15.5996C6.90756 15.5996 7.08663 15.7787 7.08663 15.9996C7.08663 16.2205 6.90751 16.3996 6.68663 16.3996C6.46569 16.3996 6.28662 16.2205 6.28662 15.9996C6.28662 15.7787 6.46574 15.5996 6.68663 15.5996Z" fill="black"/>
</g>
<defs>
<clipPath id="clip0_36334_25756">
<rect width="24" height="24" fill="white" transform="translate(0.68689)"/>
</clipPath>
</defs>
</svg>
