<svg width="25" height="24" viewBox="0 0 25 24" fill="none" xmlns="http://www.w3.org/2000/svg">
<g clip-path="url(#clip0_36334_25763)">
<path d="M20.7669 17.208C17.9149 16.6384 16.1269 15.8776 14.5961 14.5816C14.3737 14.3937 14.1951 14.1596 14.0726 13.8955C13.9501 13.6315 13.8867 13.3439 13.8869 13.0528V1.2C13.8869 0.88174 13.7605 0.576515 13.5354 0.351472C13.3104 0.126428 13.0052 0 12.6869 0L1.88689 0C1.56863 0 1.26341 0.126428 1.03836 0.351472C0.813318 0.576515 0.68689 0.88174 0.68689 1.2L0.68689 22C0.687525 22.5302 0.898442 23.0386 1.27338 23.4135C1.64831 23.7884 2.15665 23.9994 2.68689 24H22.6869C23.2171 23.9994 23.7255 23.7884 24.1004 23.4135C24.4753 23.0386 24.6863 22.5302 24.6869 22V21.616C24.7161 21.26 24.8617 18.0272 20.7669 17.208ZM23.8961 21.2H8.28689V18.4856H8.29809C11.8721 18.4856 13.9825 17.2024 15.1737 16.0056C16.5801 16.9176 18.2537 17.5212 20.6085 17.9912C23.4573 18.562 23.8577 20.4156 23.8961 21.2ZM1.48689 15.916C3.95809 16.7664 6.73609 18.346 7.36409 21.2H1.48689V15.916ZM13.0869 1.2V13.0528C13.0862 13.46 13.1744 13.8625 13.3455 14.2321C13.5166 14.6017 13.7663 14.9294 14.0773 15.1924C14.2185 15.3124 14.3625 15.426 14.5081 15.5372C13.4133 16.5924 11.5033 17.6856 8.28689 17.68V0.8H12.6869C12.793 0.8 12.8947 0.842143 12.9697 0.917157C13.0447 0.992172 13.0869 1.09391 13.0869 1.2ZM1.88689 0.8H7.48689V19.3104C6.22409 17.086 3.70609 15.8 1.48689 15.074V1.2C1.48689 1.09391 1.52903 0.992172 1.60405 0.917157C1.67906 0.842143 1.7808 0.8 1.88689 0.8ZM22.6869 23.2H2.68689C2.36863 23.2 2.06341 23.0736 1.83836 22.8485C1.61332 22.6235 1.48689 22.3183 1.48689 22H23.8869C23.8869 22.3183 23.7605 22.6235 23.5354 22.8485C23.3104 23.0736 23.0052 23.2 22.6869 23.2Z" fill="black"/>
</g>
<defs>
<clipPath id="clip0_36334_25763">
<rect width="24" height="24" fill="white" transform="translate(0.68689)"/>
</clipPath>
</defs>
</svg>
