<svg width="24" height="24" viewBox="0 0 24 24" fill="none" xmlns="http://www.w3.org/2000/svg">
<g clip-path="url(#clip0_36334_25764)">
<path d="M23.52 13.7008C23.3721 13.5886 23.1999 13.5127 23.0174 13.4791C22.8348 13.4456 22.6469 13.4553 22.4688 13.5076L20.7068 14.0104C20.4616 14.0684 20.2268 14.1208 19.9984 14.1704V11.592C19.9985 11.4084 19.9563 11.2273 19.8751 11.0627C19.7939 10.898 19.6758 10.7544 19.53 10.6428L15.93 7.87557C15.7526 7.73956 15.5406 7.65583 15.3181 7.63381C15.0956 7.6118 14.8714 7.65239 14.6708 7.75099C14.4701 7.8496 14.301 8.0023 14.1825 8.19188C14.0639 8.38147 14.0007 8.60039 14 8.82397V13.686C13.152 13.0424 12.412 12.046 11.3904 10.6632C11.1788 10.3764 10.9564 10.0756 10.72 9.75997C8.7528 7.13277 3.534 6.06557 1.3788 5.72797C1.208 5.70277 1.03377 5.71463 0.867952 5.76274C0.702136 5.81084 0.548615 5.89407 0.417816 6.00677C0.287018 6.11947 0.182005 6.259 0.109912 6.41588C0.0378185 6.57276 0.00033245 6.74332 0 6.91597L0 17.2C0 17.5182 0.126428 17.8235 0.351472 18.0485C0.576515 18.2735 0.88174 18.4 1.2 18.4H17.256C18.4885 18.382 19.7147 18.2209 20.91 17.92L23.1272 17.2848C23.3782 17.2136 23.5992 17.0626 23.7567 16.8546C23.9142 16.6466 23.9996 16.3929 24 16.132V14.66C24.0007 14.4737 23.9576 14.2898 23.8742 14.1232C23.7909 13.9566 23.6695 13.8119 23.52 13.7008ZM15.0228 8.46477C15.0899 8.43102 15.1654 8.41727 15.2401 8.42514C15.3149 8.43301 15.3858 8.46218 15.4444 8.50917L19.0444 11.276C19.093 11.3131 19.1325 11.3609 19.1597 11.4157C19.187 11.4705 19.2013 11.5308 19.2016 11.592V14.3244C17.1884 14.6864 15.838 14.6388 14.8016 14.1668V8.82397C14.8004 8.74924 14.8206 8.67572 14.8598 8.61208C14.899 8.54844 14.9555 8.49733 15.0228 8.46477ZM1.2 17.6C1.09391 17.6 0.992172 17.5578 0.917157 17.4828C0.842143 17.4078 0.8 17.3061 0.8 17.2V9.57717C0.866966 9.60094 0.935901 9.61874 1.006 9.63037C2.472 9.87517 7.4008 10.8704 9.28 13.3756L9.3672 13.492C10.5896 15.1232 11.7724 16.692 13.5896 17.6H1.2ZM23.2 16.132C23.1998 16.2188 23.1713 16.3031 23.1189 16.3723C23.0665 16.4415 22.9931 16.4918 22.9096 16.5156L20.7096 17.1464C19.5794 17.4283 18.4207 17.5805 17.256 17.6C13.5648 17.6 12.016 15.6904 9.92 12.896C7.92 10.2264 3.112 9.17117 1.1372 8.83997C1.04369 8.82511 0.958489 8.77756 0.896745 8.70578C0.835001 8.634 0.80072 8.54265 0.8 8.44797V6.91597C0.80094 6.81018 0.843384 6.70898 0.918196 6.63417C0.993008 6.55936 1.0942 6.51691 1.2 6.51597C1.21942 6.51584 1.23882 6.51732 1.258 6.52037C3.314 6.84237 8.2884 7.84877 10.08 10.2404C10.3148 10.554 10.536 10.8536 10.7464 11.1388C12.0144 12.8588 12.9308 14.0988 14.212 14.7788C15.5048 15.4668 17.1392 15.5492 19.6752 15.0552C20.0568 14.9816 20.462 14.8928 20.9096 14.7868L22.6912 14.2784C22.7504 14.2616 22.8127 14.2588 22.8732 14.27C22.9337 14.2813 22.9908 14.3064 23.04 14.3433C23.0892 14.3802 23.1293 14.428 23.157 14.4829C23.1848 14.5378 23.1995 14.5984 23.2 14.66V16.132Z" fill="black"/>
</g>
<defs>
<clipPath id="clip0_36334_25764">
<rect width="24" height="24" fill="white"/>
</clipPath>
</defs>
</svg>
