<svg width="24" height="24" viewBox="0 0 24 24" fill="none" xmlns="http://www.w3.org/2000/svg">
<path d="M13.6496 0.392C13.5372 0.268666 13.4004 0.170105 13.2479 0.10261C13.0953 0.0351147 12.9304 0.000167847 12.7636 0L6.79557 0C6.49039 0.000332702 6.19673 0.116541 5.97396 0.325125C5.75119 0.533709 5.61594 0.819105 5.59557 1.1236C5.07117 11.3448 5.69677 13.5636 6.11117 15.0308C6.29763 15.6 6.39609 16.1943 6.40317 16.7932C6.4178 17.4281 6.30645 18.0596 6.07557 18.6512C5.33957 20.4912 5.81797 21.7312 5.99957 22.0992V22.8C5.99957 23.1183 6.12599 23.4235 6.35104 23.6485C6.57608 23.8736 6.88131 24 7.19957 24H9.59957C9.91783 24 10.2231 23.8736 10.4481 23.6485C10.6731 23.4235 10.7996 23.1183 10.7996 22.8V22.584C11.045 22.6053 11.2845 22.6706 11.5068 22.7768C11.9248 22.9915 12.3615 23.1676 12.8116 23.3028C14.1275 23.7077 15.4925 23.9311 16.8688 23.9668C18.0068 23.9668 19.1284 23.7544 19.9036 23.1072C20.4636 22.6356 20.4612 21.248 20.3124 20.7656C20.2715 20.5537 20.1858 20.353 20.061 20.1768C19.9363 20.0007 19.7754 19.8532 19.5891 19.7443C19.4028 19.6354 19.1954 19.5674 18.9807 19.5451C18.7661 19.5228 18.5491 19.5465 18.3444 19.6148C18.0107 19.7028 17.6665 19.7441 17.3216 19.7376C16.5448 19.7484 15.7812 19.5358 15.1217 19.1252C14.4622 18.7145 13.9346 18.1231 13.6016 17.4212C12.7456 15.7264 13.4208 6.5012 13.9552 1.3148C13.9711 1.14819 13.9522 0.980093 13.8996 0.821211C13.847 0.662329 13.7618 0.516153 13.6496 0.392ZM6.79557 0.8H12.7636C12.8192 0.799789 12.8742 0.811168 12.9251 0.83341C12.9761 0.855652 13.0218 0.888269 13.0595 0.92918C13.0971 0.970092 13.1258 1.0184 13.1437 1.07102C13.1616 1.12364 13.1684 1.17942 13.1636 1.2348C13.12 1.64 13.0512 2.3308 12.9716 3.2H6.30117C6.32717 2.56 6.35757 1.8876 6.39437 1.1704C6.40187 1.06932 6.44746 0.974851 6.52193 0.906094C6.59641 0.837338 6.69421 0.799418 6.79557 0.8ZM12.8 5.2H6.23317C6.24357 4.8168 6.2561 4.4168 6.27077 4H12.9004C12.8672 4.378 12.8336 4.7804 12.8 5.2ZM9.59997 23.2H7.19997C7.09388 23.2 6.99214 23.1579 6.91712 23.0828C6.84211 23.0078 6.79997 22.9061 6.79997 22.8V22.39C7.36837 22.3816 8.53117 22.386 9.99997 22.5076V22.8C9.99997 22.9061 9.95782 23.0078 9.88281 23.0828C9.8078 23.1579 9.70605 23.2 9.59997 23.2ZM17.32 20.536C17.7317 20.5352 18.1419 20.4857 18.542 20.3884C18.9192 20.2948 19.334 20.294 19.548 20.998C19.6776 21.418 19.5528 22.3508 19.388 22.494C18.1148 23.5552 15.1736 23.1804 13.042 22.5372C12.6382 22.4159 12.2463 22.2581 11.8712 22.0656C11.0412 21.6384 8.05477 21.5856 7.18797 21.5856C6.96357 21.5856 6.78117 21.5884 6.64677 21.5912C6.36548 20.7205 6.42626 19.7754 6.81677 18.948C7.08677 18.2583 7.21755 17.5221 7.20157 16.7816C7.19366 16.113 7.0858 15.4494 6.88157 14.8128C6.55557 13.658 6.09397 12.0208 6.21437 5.9992H12.7372C12.4024 10.4128 12.1304 16.2748 12.89 17.7784C13.2871 18.6138 13.9155 19.3177 14.7008 19.8065C15.4861 20.2953 16.3951 20.5485 17.32 20.536Z" fill="black"/>
</svg>
