<svg width="20" height="20" viewBox="0 0 20 20" fill="none" xmlns="http://www.w3.org/2000/svg">
<path fill-rule="evenodd" clip-rule="evenodd" d="M9.9819 3.56154L13.3597 1.57879C13.4938 1.50017 13.6459 1.45885 13.8007 1.45898C13.9555 1.45912 14.1075 1.50072 14.2414 1.57957C14.3753 1.65843 14.4864 1.77176 14.5635 1.90814C14.6405 2.04451 14.6808 2.19911 14.6802 2.35634V6.32186L9.9819 9.07245L5.28358 6.32186V2.39522C5.28303 2.23799 5.3233 2.08339 5.40035 1.94701C5.47739 1.81064 5.58847 1.69731 5.72239 1.61845C5.85631 1.5396 6.00834 1.498 6.16313 1.49786C6.31793 1.49772 6.47003 1.53905 6.60408 1.61766L9.9819 3.56154ZM0.853308 10.1414C0.72026 10.2201 0.609861 10.3328 0.533129 10.4684C0.456397 10.604 0.416016 10.7577 0.416016 10.9141C0.416016 11.0705 0.456397 11.2241 0.533129 11.3597C0.609861 11.4953 0.72026 11.608 0.853308 11.6868L4.23113 13.6306V17.5962C4.23058 17.7534 4.27086 17.908 4.3479 18.0444C4.42494 18.1807 4.53602 18.2941 4.66994 18.3729C4.80387 18.4518 4.95589 18.4934 5.11069 18.4935C5.26548 18.4936 5.41758 18.4523 5.55164 18.3737L8.93902 16.4298V10.9675L4.2407 8.15861L0.853308 10.1414ZM19.1107 10.1411L15.7328 8.19727L11.0249 10.9673V16.4782L14.4123 18.4221C14.5464 18.5007 14.6985 18.542 14.8533 18.5419C15.0081 18.5417 15.1601 18.5002 15.294 18.4213C15.4279 18.3424 15.539 18.2291 15.6161 18.0927C15.6931 17.9564 15.7334 17.8018 15.7328 17.6445V13.6693L19.1107 11.7254C19.253 11.6497 19.3722 11.5358 19.4554 11.3962C19.5386 11.2566 19.5826 11.0965 19.5826 10.9333C19.5826 10.7701 19.5386 10.61 19.4554 10.4703C19.3722 10.3307 19.253 10.2169 19.1107 10.1411Z" fill="#F3B70F"/>
</svg>
