<svg width="28" height="28" viewBox="0 0 28 28" fill="none" xmlns="http://www.w3.org/2000/svg">
<g clip-path="url(#clip0_39010_326)">
<path d="M3.19922 11.6322H4.13789L3.66855 10.4375L3.19922 11.6322Z" fill="#2FABF7"/>
<path d="M14.847 10.6091C14.7617 10.5664 14.6337 10.5664 14.5057 10.5664H13.6523V11.2491H14.5057C14.6337 11.2491 14.7617 11.2491 14.847 11.2064C14.9323 11.1637 14.975 11.0357 14.975 10.9077C15.0177 10.7371 14.9323 10.6517 14.847 10.6091Z" fill="#228FE0"/>
<path d="M23.9772 9.32812V9.84013L23.7212 9.32812H21.7159V9.84013L21.4599 9.32812H18.7292C18.2599 9.32812 17.8759 9.41346 17.5345 9.58413V9.32812H15.6145V9.58413C15.4012 9.41346 15.1452 9.32812 14.8039 9.32812H7.93453L7.4652 10.3948L6.99586 9.32812H4.81986V9.84013L4.56386 9.32812H2.7292L1.87586 11.3335L0.894531 13.5521H1.87586H3.07053L3.32653 12.8695H3.92386L4.17986 13.5521H6.65453V13.0401L6.86786 13.5521H8.1052L8.31853 13.0401V13.5521H14.2492V12.4428H14.3345C14.4199 12.4428 14.4199 12.4428 14.4199 12.5708V13.5095H17.4919V13.2535C17.7479 13.3815 18.1319 13.5095 18.6439 13.5095H19.9239L20.1799 12.8268H20.7772L21.0332 13.5095H23.5079V12.8695L23.8919 13.5095H25.8972V9.32812H23.9772ZM9.55586 12.9121H8.83053V10.5655L7.80653 12.9121H7.16653L6.14253 10.5655V12.9121H4.69186L4.3932 12.2721H2.94253L2.68653 12.9548H1.87586L3.15586 9.92546H4.22253L5.4172 12.7841V9.92546H6.5692L7.50786 11.9735L8.3612 9.92546H9.55586V12.9121ZM12.4572 10.5655H10.7932V11.1201H12.4145V11.7175H10.7932V12.3148H12.4572V12.9548H10.0679V9.92546H12.4572V10.5655ZM15.6572 11.8028C15.7425 11.9735 15.7852 12.1015 15.7852 12.3575V12.9548H15.0599V12.5708C15.0599 12.4001 15.0599 12.1441 14.9319 11.9735C14.8039 11.8455 14.6759 11.8455 14.4199 11.8455H13.6519V12.9548H12.9265V9.92546H14.5479C14.9319 9.92546 15.1879 9.92546 15.4012 10.0535C15.6145 10.1815 15.7425 10.3948 15.7425 10.7361C15.7425 11.2055 15.4439 11.4615 15.2305 11.5468C15.4439 11.5895 15.5719 11.7175 15.6572 11.8028ZM16.9372 12.9121H16.2119V9.88279H16.9372V12.9121ZM25.3425 12.9121H24.3185L22.9532 10.6508V12.9121H21.5025L21.2465 12.2721H19.7532L19.4972 12.9548H18.6865C18.3452 12.9548 17.9185 12.8695 17.6625 12.6135C17.4065 12.3575 17.2785 12.0161 17.2785 11.4615C17.2785 11.0348 17.3639 10.6081 17.6625 10.2668C17.8759 10.0108 18.2599 9.92546 18.7292 9.92546H19.4119V10.5655H18.7292C18.4732 10.5655 18.3452 10.6081 18.1745 10.7361C18.0465 10.8641 17.9612 11.1201 17.9612 11.4188C17.9612 11.7601 18.0039 11.9735 18.1745 12.1441C18.3025 12.2721 18.4732 12.3148 18.6865 12.3148H18.9852L19.9665 9.96812H21.0332L22.2279 12.8268V9.96812H23.2945L24.5319 12.0588V9.96812H25.2572V12.9121H25.3425Z" fill="#0571C1"/>
<path d="M20.0098 11.6322H20.9911L20.5218 10.4375L20.0098 11.6322Z" fill="#228FE0"/>
<path d="M12.7558 17.7757V15.3438L11.6465 16.5384L12.7558 17.7757Z" fill="#228FE0"/>
<path d="M8.19141 15.6426V16.1972H9.77007V16.7946H8.19141V17.4346H9.94074L10.7514 16.5386L9.98341 15.6426H8.19141Z" fill="#2FABF7"/>
<path d="M14.3765 15.6426H13.4805V16.4106H14.4191C14.6751 16.4106 14.8458 16.2826 14.8458 16.0266C14.8031 15.7706 14.6325 15.6426 14.3765 15.6426Z" fill="#228FE0"/>
<path d="M27.5622 16.3692V14.4492H27.0502H25.7702C25.3862 14.4492 25.0875 14.5346 24.8742 14.7052V14.4492H22.9115C22.6128 14.4492 22.2288 14.5346 22.0582 14.7052V14.4492H18.6022V14.7052C18.3462 14.4919 17.8768 14.4492 17.6635 14.4492H15.3595V14.7052C15.1462 14.4919 14.6342 14.4492 14.3782 14.4492H11.8182L11.2208 15.0892L10.6662 14.4492H6.82617V18.6306H10.5808L11.1782 17.9906L11.7328 18.6306H14.0368V17.6492H14.3355C14.6342 17.6492 15.0182 17.6492 15.3168 17.5212V18.6732H17.2368V17.5639H17.3222C17.4502 17.5639 17.4502 17.5639 17.4502 17.6919V18.6732H23.2528C23.6368 18.6732 24.0208 18.5879 24.2342 18.4172V18.6732H26.0688C26.4528 18.6732 26.8368 18.6306 27.0928 18.4599C27.5195 18.2039 27.7755 17.7346 27.7755 17.1799C27.7755 16.8812 27.6902 16.5826 27.5622 16.3692ZM14.3355 17.0519H13.4822V18.0759H12.1168L11.2635 17.0946L10.3675 18.0759H7.55151V15.0466H10.4102L11.2635 16.0279L12.1595 15.0466H14.4208C14.9755 15.0466 15.6155 15.2172 15.6155 16.0279C15.5728 16.8812 14.9755 17.0519 14.3355 17.0519ZM18.6022 16.8812C18.6875 17.0092 18.7302 17.1799 18.7302 17.4359V18.0332H18.0048V17.6492C18.0048 17.4786 18.0048 17.1799 17.8768 17.0519C17.7915 16.9239 17.6208 16.9239 17.3648 16.9239H16.5968V18.0332H15.8715V15.0039H17.4928C17.8342 15.0039 18.1328 15.0039 18.3462 15.1319C18.5595 15.2599 18.7302 15.4732 18.7302 15.8146C18.7302 16.2839 18.4315 16.5399 18.2182 16.6252C18.4315 16.7106 18.5595 16.7959 18.6022 16.8812ZM21.5462 15.6439H19.8822V16.1986H21.5035V16.7959H19.8822V17.3932H21.5462V18.0332H19.1568V15.0039H21.5462V15.6439ZM23.3382 18.0332H21.9728V17.3932H23.3382C23.4662 17.3932 23.5515 17.3932 23.6368 17.3079C23.6795 17.2652 23.7222 17.1799 23.7222 17.0946C23.7222 17.0092 23.6795 16.9239 23.6368 16.8812C23.5942 16.8386 23.5088 16.7959 23.3808 16.7959C22.6982 16.7532 21.8875 16.7959 21.8875 15.8572C21.8875 15.4306 22.1435 14.9612 22.9115 14.9612H24.3195V15.6866H22.9968C22.8688 15.6866 22.7835 15.6866 22.6982 15.7292C22.6128 15.7719 22.6128 15.8572 22.6128 15.9426C22.6128 16.0706 22.6982 16.1132 22.7835 16.1559C22.8688 16.1986 22.9542 16.1986 23.0395 16.1986H23.4235C23.8075 16.1986 24.0635 16.2839 24.2342 16.4546C24.3622 16.5826 24.4475 16.7959 24.4475 17.0946C24.4475 17.7346 24.0635 18.0332 23.3382 18.0332ZM27.0075 17.7346C26.8368 17.9052 26.5382 18.0332 26.1115 18.0332H24.7462V17.3932H26.1115C26.2395 17.3932 26.3248 17.3932 26.4102 17.3079C26.4528 17.2652 26.4955 17.1799 26.4955 17.0946C26.4955 17.0092 26.4528 16.9239 26.4102 16.8812C26.3675 16.8386 26.2822 16.7959 26.1542 16.7959C25.4715 16.7532 24.6608 16.7959 24.6608 15.8572C24.6608 15.4306 24.9168 14.9612 25.6848 14.9612H27.0928V15.6866H25.8128C25.6848 15.6866 25.5995 15.6866 25.5142 15.7292C25.4288 15.7719 25.4288 15.8572 25.4288 15.9426C25.4288 16.0706 25.4715 16.1132 25.5995 16.1559C25.6848 16.1986 25.7702 16.1986 25.8555 16.1986H26.2395C26.6235 16.1986 26.8795 16.2839 27.0502 16.4546C27.0928 16.4546 27.0928 16.4972 27.0928 16.4972C27.2208 16.6679 27.2635 16.8812 27.2635 17.0946C27.2635 17.3506 27.1782 17.5639 27.0075 17.7346Z" fill="#0571C1"/>
<path d="M17.8333 15.7282C17.748 15.6855 17.62 15.6855 17.492 15.6855H16.6387V16.3682H17.492C17.62 16.3682 17.748 16.3682 17.8333 16.3255C17.9187 16.2829 17.9613 16.1549 17.9613 16.0269C18.004 15.8562 17.9187 15.7709 17.8333 15.7282Z" fill="#228FE0"/>
<path d="M14.847 10.6091C14.7617 10.5664 14.6337 10.5664 14.5057 10.5664H13.6523V11.2491H14.5057C14.6337 11.2491 14.7617 11.2491 14.847 11.2064C14.9323 11.1637 14.975 11.0357 14.975 10.9077C15.0177 10.7371 14.9323 10.6517 14.847 10.6091Z" fill="#228FE0"/>
<path d="M20.0098 11.6322H20.9911L20.5218 10.4375L20.0098 11.6322Z" fill="#228FE0"/>
<path d="M12.7558 17.7757V15.3438L11.6465 16.5384L12.7558 17.7757Z" fill="#228FE0"/>
<path d="M14.3765 15.6426H13.4805V16.4106H14.4191C14.6751 16.4106 14.8458 16.2826 14.8458 16.0266C14.8031 15.7706 14.6325 15.6426 14.3765 15.6426Z" fill="#228FE0"/>
<path d="M17.8333 15.7282C17.748 15.6855 17.62 15.6855 17.492 15.6855H16.6387V16.3682H17.492C17.62 16.3682 17.748 16.3682 17.8333 16.3255C17.9187 16.2829 17.9613 16.1549 17.9613 16.0269C18.004 15.8562 17.9187 15.7709 17.8333 15.7282Z" fill="#228FE0"/>
<path d="M14.0795 17.9459L13.4822 17.3059V18.0313H12.0742L11.2208 17.0499L10.2822 18.0313H7.46617V15.0446H10.3248L11.2208 16.0259L11.6475 15.5139L10.5808 14.4473H6.82617V18.6286H10.5808L11.2208 17.9886L11.7755 18.6286H14.0795V17.9459Z" fill="#2FABF7"/>
<path d="M9.6412 13.5095L9.08653 12.9121H8.83053V12.6561L8.19053 12.0161L7.76386 12.9121H7.16653L6.14253 10.5655V12.9121H4.69186L4.3932 12.2721H2.94253L2.64386 12.9121H1.87586L3.15586 9.92546H4.22253L5.4172 12.7841V9.92546H6.0572L5.45986 9.32812H4.81986V9.84013L4.60653 9.32812H2.7292L1.87586 11.3335L0.894531 13.5095H1.87586H3.1132L3.3692 12.8695H3.96653L4.2652 13.5095H6.65453V12.9975L6.86786 13.5095H8.1052L8.31853 12.9975V13.5095H9.6412Z" fill="#2FABF7"/>
<path d="M7.67876 11.5459L6.99609 10.8633L7.50809 11.9726L7.67876 11.5459Z" fill="#2FABF7"/>
<path d="M27.0933 18.4163C27.4773 18.1603 27.7333 17.7336 27.7759 17.2643L27.1786 16.667C27.2213 16.795 27.2639 16.923 27.2639 17.0936C27.2639 17.3496 27.1786 17.563 27.0079 17.7336C26.8373 17.9043 26.5386 18.0323 26.1119 18.0323H24.7466V17.3923H26.1119C26.2399 17.3923 26.3253 17.3923 26.4106 17.307C26.4533 17.2643 26.4959 17.179 26.4959 17.0936C26.4959 17.0083 26.4533 16.923 26.4106 16.8803C26.3679 16.8376 26.2826 16.795 26.1546 16.795C25.4719 16.7523 24.6613 16.795 24.6613 15.8563C24.6613 15.4296 24.9173 15.0456 25.5573 14.9603L25.0879 14.491C25.0026 14.5336 24.9599 14.5763 24.9173 14.5763V14.3203H22.9546C22.6559 14.3203 22.2719 14.4056 22.1013 14.5763V14.3203H18.6026V14.5763C18.3466 14.363 17.8773 14.3203 17.6639 14.3203H15.3599V14.5763C15.1466 14.363 14.6346 14.3203 14.3786 14.3203H11.8186L11.2213 14.9603L10.6666 14.3203H10.1973L11.4773 15.6003L12.1173 14.9176H14.3786C14.9333 14.9176 15.5733 15.0883 15.5733 15.899C15.5733 16.7523 14.9759 16.923 14.3359 16.923H13.4826V17.563L14.1226 18.203V17.563H14.3359C14.6346 17.563 15.0186 17.563 15.3173 17.435V18.587H17.2373V17.4776H17.3226C17.4506 17.4776 17.4506 17.4776 17.4506 17.6056V18.587H23.2533C23.6373 18.587 24.0213 18.5016 24.2346 18.331V18.587H26.0693C26.4106 18.6296 26.7946 18.587 27.0933 18.4163ZM18.6026 16.8803C18.6879 17.0083 18.7306 17.179 18.7306 17.435V18.0323H18.0053V17.6483C18.0053 17.4776 18.0053 17.179 17.8773 17.051C17.7919 16.923 17.6213 16.923 17.3653 16.923H16.5973V18.0323H15.8719V15.003H17.4933C17.8346 15.003 18.1333 15.003 18.3466 15.131C18.5599 15.259 18.7306 15.4723 18.7306 15.8136C18.7306 16.283 18.4319 16.539 18.2186 16.6243C18.4319 16.7096 18.5599 16.795 18.6026 16.8803ZM21.5466 15.643H19.8826V16.1976H21.5039V16.795H19.8826V17.3923H21.5466V18.0323H19.1573V15.003H21.5466V15.643ZM23.3386 18.0323H21.9733V17.3923H23.3386C23.4666 17.3923 23.5519 17.3923 23.6373 17.307C23.6799 17.2643 23.7226 17.179 23.7226 17.0936C23.7226 17.0083 23.6799 16.923 23.6373 16.8803C23.5946 16.8376 23.5093 16.795 23.3813 16.795C22.6986 16.7523 21.8879 16.795 21.8879 15.8563C21.8879 15.4296 22.1439 14.9603 22.9119 14.9603H24.3199V15.6856H22.9973C22.8693 15.6856 22.7839 15.6856 22.6986 15.7283C22.6133 15.771 22.6133 15.8563 22.6133 15.9416C22.6133 16.0696 22.6986 16.1123 22.7839 16.155C22.8693 16.1976 22.9546 16.1976 23.0399 16.1976H23.4239C23.8079 16.1976 24.0639 16.283 24.2346 16.4536C24.3626 16.5816 24.4479 16.795 24.4479 17.0936C24.4479 17.7336 24.0639 18.0323 23.3386 18.0323Z" fill="#228FE0"/>
<path d="M25.3867 15.9415C25.3867 16.0695 25.4294 16.1122 25.5574 16.1549C25.6427 16.1975 25.7281 16.1975 25.8134 16.1975H26.1974C26.4534 16.1975 26.6241 16.2402 26.7947 16.3255L26.1547 15.6855H25.7707C25.6427 15.6855 25.5574 15.6855 25.4721 15.7282C25.4294 15.7709 25.3867 15.8562 25.3867 15.9415Z" fill="#228FE0"/>
<path d="M23.8926 13.3809L23.9779 13.5089H24.0206L23.8926 13.3809Z" fill="#228FE0"/>
<path d="M21.5449 11.0352L22.2703 12.7845V11.7605L21.5449 11.0352Z" fill="#228FE0"/>
<path d="M14.2498 12.4431H14.3351C14.4205 12.4431 14.4205 12.4431 14.4205 12.5711V13.5098H17.4925V13.2538C17.7485 13.3818 18.1325 13.5098 18.6445 13.5098H19.9245L20.1805 12.8271H20.7778L21.0338 13.5098H23.5085V13.0831L22.9111 12.4858V12.9551H21.4605L21.2471 12.2724H19.7538L19.4978 12.9551H18.6871C18.3458 12.9551 17.9191 12.8698 17.6631 12.6138C17.4071 12.3578 17.2791 12.0164 17.2791 11.4618C17.2791 11.0351 17.3645 10.6084 17.6631 10.2671C17.8765 10.0111 18.2605 9.92576 18.7298 9.92576H19.4125V10.5658H18.7298C18.4738 10.5658 18.3458 10.6084 18.1751 10.7364C18.0471 10.8644 17.9618 11.1204 17.9618 11.4191C17.9618 11.7604 18.0045 11.9738 18.1751 12.1444C18.3031 12.2724 18.4738 12.3151 18.6871 12.3151H18.9858L19.9671 9.96843H20.3938L19.7965 9.37109H18.6871C18.2178 9.37109 17.8338 9.45643 17.4925 9.62709V9.37109H15.6151V9.62709C15.4018 9.45643 15.1458 9.37109 14.8045 9.37109H7.93514L7.46581 10.4378L6.99647 9.37109H5.11914L5.71647 9.96843H6.56981L7.29514 11.5471L7.55114 11.8031L8.31914 9.92576H9.51381V12.9551H8.78847V10.6084L8.06314 12.3151L9.30047 13.5524H14.2071L14.2498 12.4431ZM16.2125 9.92576H16.9378V12.9551H16.2125V9.92576ZM12.4578 10.5658H10.7938V11.1204H12.4151V11.7178H10.7938V12.3151H12.4578V12.9551H10.0685V9.92576H12.4578V10.5658ZM13.6525 12.9124H12.9271V9.88309H14.5485C14.9325 9.88309 15.1885 9.88309 15.4018 10.0111C15.6151 10.1391 15.7431 10.3524 15.7431 10.6938C15.7431 11.1631 15.4445 11.4191 15.2311 11.5044C15.4018 11.5471 15.5298 11.6751 15.5725 11.7604C15.6578 11.9311 15.7005 12.0591 15.7005 12.3151V12.9124H14.9751V12.5284C14.9751 12.3578 14.9751 12.1018 14.8471 11.9311C14.8045 11.8458 14.6765 11.8458 14.4205 11.8458H13.6525V12.9124Z" fill="#228FE0"/>
</g>
<defs>
<clipPath id="clip0_39010_326">
<rect width="26.88" height="26.88" fill="white" transform="translate(0.894531 0.560547)"/>
</clipPath>
</defs>
</svg>
