<svg width="28" height="28" viewBox="0 0 28 28" fill="none" xmlns="http://www.w3.org/2000/svg">
<path d="M7.44683 12.9186C7.46326 14.4027 8.79402 14.8956 8.80498 14.9011C8.79402 14.9339 8.5914 15.6075 8.104 16.2975C7.68232 16.8945 7.2442 17.4914 6.55418 17.5023C5.8751 17.5133 5.65605 17.1135 4.88388 17.1135C4.10623 17.1135 3.86527 17.4914 3.22453 17.5133C2.55641 17.5352 2.05258 16.8671 1.62542 16.2702C0.754675 15.0544 0.0920312 12.831 0.984684 11.3305C1.42827 10.5857 2.22235 10.1147 3.08214 10.0983C3.73383 10.0873 4.35267 10.5254 4.75244 10.5254C5.15222 10.5254 5.90249 9.99969 6.69109 10.0764C7.01967 10.0873 7.95066 10.2078 8.54211 11.0512C8.49282 11.0785 7.43588 11.6755 7.44683 12.9186ZM6.17083 9.27133C6.5268 8.85512 6.76228 8.2801 6.69656 7.70508C6.18726 7.72698 5.56843 8.03366 5.20698 8.44987C4.8784 8.81679 4.59363 9.40276 4.6703 9.96683C5.23984 10.0106 5.82034 9.68753 6.17083 9.27133ZM11.2941 8.56022C11.5545 8.51695 11.8482 8.479 12.164 8.44111C12.4799 8.40321 12.8289 8.387 13.2057 8.387C13.7487 8.387 14.2142 8.45195 14.6076 8.57648C15.001 8.70633 15.3224 8.88497 15.5773 9.1285C15.7933 9.33962 15.9651 9.594 16.087 9.88085C16.209 10.1731 16.2699 10.5087 16.2699 10.8876C16.2699 11.3476 16.1868 11.7482 16.0206 12.0946C15.8544 12.441 15.6271 12.7279 15.339 12.9606C15.0509 13.1934 14.7073 13.3666 14.3084 13.4856C13.9094 13.5993 13.4772 13.6589 13.0062 13.6589C12.5796 13.6589 12.225 13.6264 11.9368 13.5668V17.3773H11.2996V8.56022H11.2941ZM11.9313 13.0093C12.0864 13.0526 12.2582 13.0851 12.4466 13.1013C12.635 13.1175 12.84 13.1284 13.0561 13.1284C13.8706 13.1284 14.4968 12.9444 14.9456 12.5709C15.3944 12.2029 15.616 11.6562 15.616 10.9417C15.616 10.5953 15.5551 10.2977 15.4388 10.0432C15.3224 9.78879 15.1562 9.57773 14.9401 9.41541C14.724 9.25309 14.4635 9.1285 14.1699 9.04734C13.8706 8.96613 13.5437 8.92286 13.178 8.92286C12.8899 8.92286 12.6405 8.93365 12.43 8.95534C12.2194 8.97703 12.0532 9.00408 11.9313 9.02571V13.0093ZM21.3344 15.8671C21.3344 16.1215 21.3399 16.3813 21.3454 16.6357C21.3565 16.8901 21.3842 17.1391 21.4286 17.3772H20.8302L20.736 16.4788H20.7083C20.6251 16.6033 20.5253 16.7278 20.3979 16.8468C20.2663 16.9762 20.1193 17.0889 19.9602 17.1825C19.794 17.2853 19.6056 17.3665 19.3895 17.426C19.1789 17.4855 18.9462 17.518 18.6913 17.518C18.3755 17.518 18.0984 17.4693 17.8601 17.3665C17.6219 17.2637 17.4224 17.1337 17.2728 16.9714C17.1177 16.809 17.0013 16.6196 16.9293 16.4084C16.8517 16.1974 16.8129 15.9863 16.8129 15.7752C16.8129 15.0229 17.1343 14.4491 17.7826 14.0432C18.4309 13.6373 19.4005 13.4424 20.7027 13.4586V13.2854C20.7027 13.1176 20.6861 12.9282 20.6528 12.7117C20.6196 12.4952 20.5531 12.2895 20.4423 12.0947C20.3314 11.8999 20.1707 11.7374 19.9546 11.6075C19.7385 11.4776 19.4449 11.4073 19.0737 11.4073C18.7911 11.4073 18.514 11.4505 18.2425 11.5318C17.9748 11.6099 17.7207 11.7285 17.489 11.8836L17.2839 11.4181C17.572 11.2232 17.8713 11.0879 18.176 11.0013C18.4807 10.9201 18.8021 10.8768 19.1401 10.8768C19.5945 10.8768 19.9602 10.9526 20.2428 11.1041C20.5253 11.2556 20.7526 11.4505 20.9132 11.6887C21.0739 11.9269 21.1848 12.1921 21.2457 12.4898C21.3067 12.7874 21.3344 13.0797 21.3344 13.372V15.8671ZM20.6971 13.9782C20.3536 13.9673 19.9934 13.9836 19.6222 14.0161C19.2454 14.0539 18.9019 14.1297 18.586 14.2488C18.2702 14.3679 18.0098 14.5411 17.7992 14.7738C17.5942 15.0011 17.4889 15.3097 17.4889 15.6885C17.4889 16.1378 17.6219 16.4679 17.8823 16.679C18.1427 16.8901 18.4364 16.9984 18.7634 16.9984C19.0238 16.9984 19.262 16.9605 19.4671 16.8901C19.6721 16.8198 19.8549 16.7223 20.0101 16.6032C20.1652 16.4841 20.2926 16.3489 20.3979 16.1973C20.5032 16.0458 20.5808 15.8942 20.6362 15.7318C20.6805 15.5532 20.7027 15.4287 20.7027 15.3476L20.6971 13.9782ZM22.5755 11.0229L24.2268 15.1526C24.3154 15.38 24.4041 15.6181 24.4872 15.8617C24.5703 16.1053 24.6423 16.3272 24.7033 16.5329H24.731C24.7919 16.338 24.864 16.1216 24.9471 15.878C25.0302 15.6344 25.1189 15.3854 25.2186 15.131L26.7645 11.0283H27.4405L25.5566 15.6885C25.3682 16.1811 25.1853 16.6303 25.0191 17.0308C24.8529 17.4313 24.6811 17.794 24.5094 18.1188C24.3376 18.4435 24.1658 18.725 23.9885 18.974C23.8112 19.2229 23.6172 19.4395 23.4012 19.6235C23.1463 19.8454 22.9135 20.0077 22.703 20.1052C22.4924 20.208 22.3484 20.273 22.2764 20.2947L22.0602 19.7804C22.2209 19.71 22.4038 19.618 22.6032 19.5044C22.8027 19.3908 22.9967 19.2392 23.1851 19.0551C23.3457 18.8982 23.5286 18.6871 23.7225 18.4273C23.9164 18.1674 24.0882 17.8536 24.2434 17.4801C24.2988 17.3393 24.3265 17.2473 24.3265 17.2041C24.3265 17.1445 24.2988 17.0471 24.2434 16.928L21.8996 11.0391H22.5756L22.5755 11.0229Z" fill="#010101"/>
</svg>
