<svg width="14" height="14" viewBox="0 0 14 14" fill="none" xmlns="http://www.w3.org/2000/svg">
<path d="M0.583984 0.583984H13.4173V13.4181H0.583984V0.583984Z" fill="#FFCB01"/>
<path d="M2.96967 6.02344L2.57227 6.56342H4.73819C4.84772 6.56342 4.84635 6.60466 4.79282 6.67759C4.73847 6.75133 4.64751 6.87888 4.59207 6.95399C4.56394 6.99196 4.51313 7.06106 4.68138 7.06106H5.56715L5.82963 6.70435C5.99241 6.48339 5.84383 6.02371 5.26179 6.02371L2.96967 6.02344Z" fill="#D80613"/>
<path d="M2.41048 7.78267L3.20884 6.6978H4.19948C4.30901 6.6978 4.30764 6.73931 4.25411 6.81197L4.05199 7.08728C4.02386 7.12525 3.97306 7.19435 4.14131 7.19435H5.46818C5.35811 7.34566 4.99976 7.78267 4.35735 7.78267H2.41048ZM6.98214 7.19408L6.54923 7.78267H5.40727L5.84018 7.19408H6.98214ZM8.73127 7.06079H5.93851L6.70218 6.02344H7.8436L7.40604 6.61832H7.91543L8.35353 6.02344H9.49495L8.73127 7.06079ZM8.63322 7.19408L8.20031 7.78267H7.05889L7.49181 7.19408H8.63322ZM0.78125 7.42624H2.46319L2.37142 7.55106H0.78125V7.42624ZM0.78125 7.19408H2.63417L2.54213 7.3189H0.78125V7.19408ZM0.78125 7.6584H2.29248L2.20098 7.78267H0.78125V7.6584ZM13.2205 7.55106H11.5445L11.6366 7.42624H13.2205V7.55106ZM13.2205 7.78267H11.3744L11.4656 7.6584H13.2205V7.78267ZM11.8073 7.19408H13.2205V7.31917H11.7155L11.8073 7.19408ZM11.0758 6.02344L10.3122 7.06079H9.10246L9.86668 6.02344H11.0758ZM9.00468 7.19408C9.00468 7.19408 8.92137 7.30825 8.88068 7.36287C8.73756 7.5568 8.86402 7.7824 9.33189 7.7824H11.1651L11.5981 7.19408H9.00468Z" fill="#D80613"/>
</svg>
