<svg width="18" height="18" viewBox="0 0 18 18" fill="none" xmlns="http://www.w3.org/2000/svg">
<path d="M8.98647 0.675895C6.9401 0.671848 4.9625 1.41908 3.42441 2.77752C1.88632 4.13596 0.893324 6.01233 0.631578 8.0549C0.369831 10.0975 0.857302 12.166 2.00261 13.8727C3.14792 15.5794 4.87243 16.8072 6.85286 17.3258V15.3575L6.44646 15.3148L5.84533 15.2552L5.49819 15.2126C5.33489 15.2113 5.17356 15.1765 5.02406 15.1103C4.74708 14.967 4.52413 14.7367 4.38906 14.4542C4.32548 14.2879 4.24609 14.1281 4.15199 13.9771C3.95055 13.6598 3.7054 13.3729 3.42385 13.125C3.39774 13.0995 3.37697 13.0691 3.36278 13.0354C3.3486 13.0018 3.34129 12.9656 3.34129 12.929C3.34129 12.8924 3.3486 12.8562 3.36278 12.8226C3.37697 12.7889 3.39774 12.7584 3.42385 12.733C3.46593 12.6844 3.52292 12.6513 3.58579 12.6389C3.64867 12.6266 3.71384 12.6357 3.77099 12.6648C4.13302 12.8617 4.464 13.1115 4.75312 13.4062C4.91548 13.5662 5.06024 13.7433 5.18493 13.9345C5.24974 14.0073 5.3356 14.058 5.43046 14.0793H5.59979H5.86226L6.44646 13.9941L7.01373 13.9345C7.19284 13.416 7.5384 12.9723 7.99587 12.6734C7.52718 12.6156 7.06506 12.5129 6.6158 12.3666C5.85438 12.1702 5.18455 11.7134 4.72113 11.0744C4.25771 10.4355 4.02956 9.6542 4.07579 8.8645C4.08576 8.0708 4.38737 7.30891 4.92246 6.72575C4.71599 6.01943 4.68979 5.27213 4.84626 4.55292C4.85902 4.50534 4.88097 4.46077 4.91086 4.42174C4.94075 4.38271 4.97799 4.34999 5.02045 4.32546C5.06291 4.30093 5.10976 4.28506 5.15833 4.27876C5.20689 4.27247 5.2562 4.27587 5.30346 4.28877C6.01821 4.42234 6.67129 4.78383 7.16613 5.3198C8.54212 4.87168 10.0235 4.87168 11.3995 5.3198C11.8832 4.79168 12.5203 4.43083 13.2198 4.28877C13.3152 4.26499 13.416 4.27919 13.5011 4.32841C13.5863 4.37763 13.6493 4.45806 13.677 4.55292C13.831 5.23953 13.8136 5.95385 13.6262 6.63202C14.2234 7.2213 14.567 8.02294 14.583 8.8645C14.583 10.7306 13.4061 12.2729 10.6544 12.6648C11.0027 12.8866 11.2895 13.1937 11.4879 13.5573C11.6863 13.9209 11.7899 14.3291 11.7889 14.7439V17.1298C13.6697 16.4723 15.2575 15.1644 16.2698 13.4389C17.282 11.7135 17.653 9.68247 17.3166 7.70753C16.9802 5.73259 15.9584 3.94188 14.4329 2.65422C12.9075 1.36655 10.9774 0.665508 8.98647 0.675895Z" fill="black"/>
</svg>
