<svg width="24" height="20" viewBox="0 0 24 20" fill="none" xmlns="http://www.w3.org/2000/svg">
<g clip-path="url(#clip0_39010_411)">
<path d="M19.8862 3.97574C18.4401 3.68313 16.1085 3.28741 15.457 4.64867C13.4662 8.09698 12.3232 11.706 11.4629 13.2545C11.5533 13.3067 15.5186 15.6073 15.7991 15.7434C16.6906 16.176 18.1789 15.9814 18.813 14.8378C20.5719 11.6655 20.1248 12.4914 21.9936 9.25455C23.2013 7.16278 21.6914 4.34095 19.8862 3.97574Z" fill="#EA4335"/>
<path d="M7.37332 17.9741C6.40231 16.8632 5.69002 14.6408 6.54324 13.3962C9.03575 9.07888 11.0311 6.46539 12.6003 3.8457C13.4324 4.32615 16.7664 6.21733 16.9885 6.41219C17.7334 7.06563 18.3504 8.31421 17.6771 9.43507C15.8093 12.5445 15.0429 13.9517 13.1444 17.24C11.9365 19.3323 8.58637 19.3618 7.37332 17.9741Z" fill="#FDBD00"/>
<path d="M16.314 1.77535C14.3715 0.640276 13.3731 0.789038 12.3285 0.956565C11.3788 1.19396 10.0947 1.88412 9.55341 2.77077C8.18786 5.00739 6.89446 7.2206 5.21891 10.2198C4.70284 11.1435 5.08591 12.2784 5.56216 12.7288C5.88492 13.0342 8.25973 14.3444 8.69791 14.5328C9.31774 14.7993 10.2462 14.6139 10.8063 14.0374C10.9609 13.8782 14.5037 7.79296 15.5014 5.99816C15.9226 5.24078 16.3019 4.82164 16.9316 4.41762C18.1482 3.77921 19.0981 3.69686 20.553 4.22887C20.553 4.22887 17.3865 2.39344 16.314 1.77535Z" fill="#2DA94F"/>
<path d="M3.81594 16.0566C1.86163 14.9419 1.49123 14.0029 1.11399 13.0144C0.844801 12.0733 0.800437 10.6162 1.29765 9.7039C2.55196 7.40315 2.54295 7.39149 4.30258 4.44076C4.84452 3.53197 6.01894 3.2963 6.64715 3.48351C7.07294 3.61031 9.39501 5.01185 9.77725 5.29716C10.318 5.70072 10.6216 6.59748 10.4025 7.37081C10.3419 7.58434 8.12211 11.48 7.06674 13.2416C6.62128 13.9849 6.44801 14.5229 6.41303 15.2703C6.46842 16.6431 6.87198 17.5069 8.06025 18.501C8.06025 18.501 4.88743 16.6763 3.81594 16.0566Z" fill="#297AEC"/>
</g>
<defs>
<clipPath id="clip0_39010_411">
<rect width="22.4" height="18.8339" fill="white" transform="translate(0.800781 0.583984)"/>
</clipPath>
</defs>
</svg>
