<svg width="25" height="16" viewBox="0 0 25 16" fill="none" xmlns="http://www.w3.org/2000/svg">
<g clip-path="url(#clip0_39010_70)">
<path d="M24.7861 8.2173C24.7861 12.3665 21.4302 15.7276 17.2915 15.7276C13.1528 15.7276 9.79688 12.3665 9.79688 8.2173C9.79688 4.06813 13.1475 0.707031 17.2863 0.707031C21.425 0.707031 24.7861 4.06813 24.7861 8.2173Z" fill="#F79F1A"/>
<path d="M15.5341 8.2173C15.5341 12.3665 12.1783 15.7276 8.03954 15.7276C3.9008 15.7276 0.544922 12.3665 0.544922 8.2173C0.544922 4.06813 3.9008 0.707031 8.03954 0.707031C12.1783 0.707031 15.5341 4.06813 15.5341 8.2173Z" fill="#EA001B"/>
<path d="M12.6635 2.30469C10.9151 3.67731 9.79297 5.81714 9.79297 8.21792C9.79297 10.6187 10.9151 12.7585 12.6635 14.1311C14.4119 12.7585 15.534 10.6187 15.534 8.21792C15.534 5.81714 14.4119 3.68253 12.6635 2.30469Z" fill="#FF5F01"/>
</g>
<defs>
<clipPath id="clip0_39010_70">
<rect width="24.64" height="15.0205" fill="white" transform="translate(0.345703 0.707031)"/>
</clipPath>
</defs>
</svg>
