<svg width="16" height="22" viewBox="0 0 16 22" fill="none" xmlns="http://www.w3.org/2000/svg">
<g clip-path="url(#clip0_39010_428)">
<path d="M5.27944 19.6611L5.60043 17.6219L4.88534 17.6054H1.4707L3.84369 2.559C3.85132 2.51319 3.87478 2.4715 3.90998 2.4412C3.9452 2.41101 3.99008 2.39445 4.03647 2.39453H9.79399C11.7054 2.39453 13.0245 2.79228 13.7132 3.57738C14.036 3.94563 14.2417 4.33052 14.3411 4.754C14.4454 5.19842 14.4473 5.72935 14.3454 6.37696L14.338 6.42422V6.83914L14.6609 7.02204C14.9328 7.16629 15.1489 7.33143 15.3146 7.52049C15.5908 7.83538 15.7694 8.23558 15.8449 8.71004C15.9229 9.19801 15.8971 9.77866 15.7694 10.4361C15.6221 11.1923 15.384 11.8509 15.0624 12.3898C14.7665 12.8864 14.3896 13.2983 13.9421 13.6174C13.5149 13.9207 13.0073 14.1509 12.4334 14.2982C11.8773 14.443 11.2432 14.5161 10.5477 14.5161H10.0997C9.7788 14.5167 9.46852 14.6309 9.22375 14.8383C8.97887 15.0495 8.81678 15.338 8.76706 15.6535L8.73332 15.837L8.16619 19.4308L8.14041 19.5628C8.13365 19.6046 8.12198 19.6255 8.10481 19.6395C8.08818 19.6532 8.06739 19.6608 8.04587 19.6611H5.27944Z" fill="#253B80"/>
<path d="M14.2451 6.44531C14.2274 6.55818 14.2078 6.67074 14.1862 6.78294C13.4269 10.6812 10.8292 12.0279 7.5116 12.0279H5.82241C5.4167 12.0279 5.07477 12.3226 5.01159 12.7228L4.14668 18.2078L3.9018 19.7626C3.8607 20.0253 4.06322 20.2622 4.32839 20.2622H7.32439C7.67918 20.2622 7.98055 20.0044 8.03643 19.6545L8.06586 19.5023L8.63001 15.9225L8.6662 15.7261C8.69281 15.5564 8.77918 15.4018 8.90974 15.2901C9.0403 15.1785 9.20646 15.1172 9.37825 15.1172H9.82631C12.729 15.1172 15.0013 13.9387 15.6655 10.5284C15.9429 9.10375 15.7993 7.91414 15.0652 7.07754C14.843 6.82523 14.5674 6.61595 14.2451 6.44531Z" fill="#179BD7"/>
<path d="M13.451 6.128C13.3324 6.09363 13.2129 6.06293 13.0925 6.03592C12.9666 6.00843 12.8399 5.98449 12.7126 5.96412C12.2571 5.89047 11.7581 5.85547 11.2235 5.85547H6.71072C6.53898 5.85532 6.37285 5.91662 6.24237 6.0283C6.1119 6.13998 6.02569 6.29465 5.99934 6.46436L5.0393 12.5448L5.01172 12.7222C5.0749 12.322 5.41683 12.0273 5.82254 12.0273H7.51172C10.8294 12.0273 13.427 10.68 14.1863 6.78236C14.2091 6.66695 14.2281 6.55458 14.2453 6.44474C14.0532 6.34285 13.8451 6.25567 13.621 6.18143C13.5646 6.16268 13.5079 6.14487 13.451 6.128Z" fill="#222D65"/>
<path d="M5.99887 6.46397C6.01675 6.34853 6.06255 6.23921 6.1323 6.1455C6.20205 6.05179 6.29363 5.97654 6.39907 5.92628C6.4962 5.87972 6.60254 5.85559 6.71025 5.85568H11.223C11.7577 5.85568 12.2566 5.89068 12.7121 5.96433C12.8423 5.98521 12.9687 6.00914 13.092 6.03619C13.2148 6.06377 13.3345 6.09446 13.4505 6.1282C13.5082 6.14544 13.5653 6.16321 13.6212 6.18104C13.8452 6.25528 14.0533 6.34306 14.2454 6.44435C14.4713 5.00376 14.2435 4.02284 13.4646 3.13466C12.6059 2.15685 11.056 1.73828 9.07283 1.73828H3.31524C2.91013 1.73828 2.56455 2.03288 2.50197 2.43368L0.103788 17.6348C0.0565219 17.9355 0.288544 18.2068 0.591764 18.2068H4.14634L5.03883 12.5444L5.99887 6.46397Z" fill="#253B80"/>
</g>
<defs>
<clipPath id="clip0_39010_428">
<rect width="15.8861" height="20.16" fill="white" transform="translate(0.0566406 0.919922)"/>
</clipPath>
</defs>
</svg>
