<svg width="28" height="8" viewBox="0 0 28 8" fill="none" xmlns="http://www.w3.org/2000/svg">
<g clip-path="url(#clip0_39010_368)">
<path d="M6.81413 2.86832H5.04391C5.04391 2.5779 5.00985 2.38302 4.94172 2.28369C4.83642 2.13692 4.54581 2.06349 4.06989 2.06341C3.60778 2.06341 3.30182 2.1057 3.15201 2.19026C3.00255 2.27523 2.92778 2.45987 2.92771 2.74418C2.92771 3.00149 2.99404 3.17084 3.1267 3.25225C3.22189 3.30987 3.34769 3.34374 3.50412 3.35387L3.86105 3.37904C4.62624 3.42967 5.10406 3.46531 5.29449 3.48594C5.8996 3.54693 6.33822 3.70778 6.61038 3.96849C6.82447 4.17194 6.95198 4.43777 6.99292 4.766C7.01813 4.98698 7.03005 5.20928 7.0286 5.43169C7.0286 6.00097 6.97429 6.41765 6.86566 6.68173C6.66869 7.16644 6.22579 7.47294 5.53698 7.60123C5.24829 7.65542 4.80693 7.68258 4.21287 7.6827C3.22148 7.6827 2.53075 7.6235 2.14068 7.5051C1.66203 7.35982 1.34633 7.06562 1.1936 6.6225C1.10844 6.37569 1.06604 5.96465 1.06641 5.38939H2.83646V5.53656C2.83646 5.84355 2.9246 6.04098 3.10089 6.12883C3.23948 6.19309 3.39055 6.22597 3.54332 6.2251H4.19418C4.52622 6.2251 4.73801 6.20805 4.82956 6.17395C4.99234 6.11007 5.0992 6.00694 5.15014 5.86454C5.18014 5.75366 5.19384 5.63899 5.19079 5.52416C5.19079 5.21301 5.07733 5.02352 4.85041 4.9557C4.76524 4.92891 4.37055 4.8917 3.66633 4.84407C3.10056 4.80367 2.70765 4.76467 2.4876 4.72706C1.90808 4.61867 1.52194 4.39539 1.32919 4.05722C1.15961 3.76966 1.07492 3.33472 1.07512 2.75239C1.07512 2.30927 1.12089 1.95399 1.21244 1.68654C1.30399 1.41909 1.45154 1.21599 1.65508 1.07726C1.95371 0.86398 2.33539 0.738761 2.80011 0.701599C3.18708 0.667882 3.61632 0.650879 4.08783 0.650588C4.83066 0.650588 5.36003 0.693093 5.67593 0.778101C6.44627 0.985047 6.83144 1.56474 6.83144 2.51717C6.83144 2.59527 6.82569 2.71237 6.81419 2.86847M14.5979 7.68278V0.613281H18.1428C18.629 0.613281 18.9998 0.65296 19.255 0.732316C19.838 0.914894 20.2295 1.28885 20.4295 1.85417C20.5329 2.15093 20.5847 2.59759 20.5847 3.19416C20.5847 3.91127 20.5277 4.42664 20.4137 4.74027C20.1863 5.36063 19.719 5.71744 19.0116 5.81072C18.9285 5.82471 18.5749 5.83683 17.9506 5.84706L17.6349 5.85757H16.5006V7.68278H14.5979ZM16.5007 4.21771H17.6869C18.063 4.20416 18.292 4.17495 18.374 4.13006C18.4864 4.06825 18.562 3.94425 18.5996 3.7587C18.6237 3.63523 18.6357 3.45145 18.6356 3.20734C18.6356 2.9083 18.6117 2.6865 18.5637 2.54193C18.4953 2.33903 18.3314 2.2153 18.0719 2.17072C18.0205 2.16398 17.8974 2.16053 17.7028 2.16036H16.5009L16.5007 4.21771ZM24.6462 6.46102H22.1022L21.7604 7.68278H19.7919L21.9162 0.613281H24.7863L26.9364 7.68278H25.0092L24.6462 6.46102ZM24.2684 5.08388L23.3768 2.01937L22.5116 5.08388H24.2684Z" fill="#10298E"/>
<path d="M11.9713 1.60781C12.3442 1.60763 12.7125 1.69084 13.0491 1.85136C13.3857 2.01188 13.6822 2.24564 13.9168 2.53552L14.3269 1.65615C13.6572 1.02412 12.7705 0.67321 11.8496 0.675795C10.3504 0.675795 9.06786 1.58142 8.54166 2.86325H7.74187L7.26953 3.87562H8.29834C8.29017 3.96998 8.2859 4.06455 8.28554 4.15933C8.28556 4.27422 8.29138 4.38904 8.30296 4.50334H7.78603L7.31384 5.51601H8.56602C9.10728 6.76538 10.3738 7.64246 11.8495 7.64246C12.563 7.64418 13.2609 7.4341 13.8549 7.03884V5.79783C13.6003 6.08885 13.2818 6.31693 12.9243 6.46419C12.5667 6.61144 12.1799 6.67386 11.7942 6.64656C11.4085 6.61926 11.0344 6.50297 10.7012 6.30682C10.3679 6.11067 10.0847 5.83999 9.87363 5.51601H12.4956L12.9677 4.50334H9.48793C9.45716 4.29547 9.45218 4.0846 9.47313 3.87551H13.2606L13.7326 2.86325H9.80033C10.0201 2.4818 10.3365 2.16495 10.7176 1.94455C11.0987 1.72415 11.5311 1.60797 11.9713 1.60769" fill="#FFBE00"/>
<path d="M11.9703 1.63881C12.3387 1.63847 12.7026 1.72062 13.0352 1.87923C13.3678 2.03785 13.6606 2.26891 13.8923 2.55546L13.9228 2.59321L13.9436 2.54916L14.3536 1.66976L14.3628 1.6497L14.347 1.63463C13.7442 1.06981 12.9678 0.725789 12.1445 0.658602C11.3211 0.591414 10.4993 0.805026 9.81287 1.26463C9.23168 1.65338 8.7791 2.20606 8.51261 2.8525L8.54062 2.83366H7.72129L7.71322 2.85108L7.24103 3.86366L7.2207 3.90689H8.29736L8.26708 3.8739C8.25891 3.96911 8.25464 4.06453 8.25427 4.16017C8.25427 4.2738 8.26008 4.39081 8.27169 4.50729L8.30197 4.4739H7.76585L7.75778 4.49132L7.2853 5.5039L7.26524 5.54713H8.5651L8.53723 5.52881C9.10166 6.83163 10.4015 7.67355 11.8485 7.67355C12.568 7.67545 13.2717 7.46368 13.8706 7.06508L13.8839 7.0562V5.71798L13.8309 5.77858C13.5794 6.06603 13.2647 6.29132 12.9115 6.43676C12.5583 6.58221 12.1762 6.64386 11.7951 6.61689C11.4141 6.58991 11.0445 6.47504 10.7153 6.28128C10.3862 6.08753 10.1063 5.82015 9.89779 5.50012L9.87248 5.54724H12.5139L12.522 5.52982L12.9942 4.51701L13.0145 4.47393H9.48675L9.51691 4.50006C9.48647 4.2946 9.48153 4.08617 9.50222 3.87951L9.47194 3.90683H13.2789L13.287 3.88941L13.759 2.87689L13.7794 2.83366H9.79926L9.82539 2.8793C10.0434 2.50321 10.3562 2.19079 10.7325 1.97315C11.1088 1.75551 11.5356 1.64024 11.9703 1.63881ZM9.79926 2.89436H13.7314L13.7038 2.85113L13.2319 3.86366L13.2594 3.84624H9.44445L9.44154 3.8737C9.42079 4.08524 9.42585 4.29851 9.45661 4.50882L9.46065 4.53495H12.9667L12.9392 4.49161L12.4671 5.50413L12.4944 5.48671H9.8161L9.84707 5.53357C10.0608 5.8614 10.3475 6.13529 10.6848 6.33377C11.022 6.53225 11.4007 6.64992 11.791 6.67757C12.1814 6.70523 12.5728 6.6421 12.9347 6.49314C13.2966 6.34419 13.6191 6.11345 13.8768 5.81902L13.8235 5.79896V7.03997L13.837 7.01491C13.248 7.40671 12.5561 7.61491 11.8487 7.61313C10.4258 7.61313 9.14799 6.78546 8.59323 5.50485L8.58516 5.48668H7.31291L7.34064 5.53023L7.81251 4.51695L7.7849 4.53472H8.33568L8.3322 4.50107C8.32076 4.38662 8.31478 4.27171 8.31478 4.16014C8.31478 4.07438 8.31907 3.98228 8.32758 3.87901L8.33028 3.84615H7.26861L7.29593 3.88938L7.76815 2.87686L7.74083 2.89428H8.5608L8.56847 2.87543C8.83063 2.24014 9.27554 1.697 9.84678 1.31489C10.5218 0.863133 11.3298 0.653203 12.1394 0.719285C12.9489 0.785368 13.7122 1.12357 14.305 1.67882L14.2983 1.6438L13.8884 2.52341L13.9396 2.51694C13.6805 2.19726 13.3474 1.94546 12.9692 1.78329C12.591 1.62111 12.1791 1.55344 11.7689 1.58612C11.3587 1.61879 10.9626 1.75083 10.6148 1.97083C10.2671 2.19083 9.9781 2.49217 9.77287 2.84884L9.74648 2.89448L9.79926 2.89436Z" fill="#10298E"/>
</g>
<defs>
<clipPath id="clip0_39010_368">
<rect width="26.88" height="7.36512" fill="white" transform="translate(0.560547 0.318359)"/>
</clipPath>
</defs>
</svg>
