<svg width="14" height="14" viewBox="0 0 14 14" fill="none" xmlns="http://www.w3.org/2000/svg">
<g clip-path="url(#clip0_37780_23616)">
<path fill-rule="evenodd" clip-rule="evenodd" d="M0.583984 0.583984H13.4173V13.4173H0.583984V0.583984Z" fill="#43338E"/>
<path fill-rule="evenodd" clip-rule="evenodd" d="M10.6875 7.70968L10.3113 7.28785L9.93879 7.70968H9.15463L9.92121 6.84836L9.15463 5.98704H9.96336L10.3431 6.40542L10.7086 5.98704H11.4891L10.7261 6.84484L11.4996 7.70962L10.6875 7.70968ZM7.64844 7.70968V4.99609H9.15463V5.60096H8.28639V5.98704H9.15463V6.56894H8.28639V7.10316H9.15463V7.70968H7.64844Z" fill="#D9782D"/>
<path fill-rule="evenodd" clip-rule="evenodd" d="M7.01367 4.99609V6.10662H7.00668C6.86607 5.9449 6.6903 5.88864 6.48644 5.88864C6.06866 5.88864 5.75401 6.17273 5.64363 6.5481C5.51759 6.13451 5.19276 5.88098 4.71113 5.88098C4.31992 5.88098 4.01106 6.05655 3.84981 6.34264V5.98704H3.04115V5.60096H3.92351V4.99609H2.32031V7.70968H3.04115V6.56894H3.75953C3.73739 6.65662 3.72634 6.74674 3.72664 6.83718C3.72664 7.40323 4.15913 7.80043 4.71107 7.80043C5.17512 7.80043 5.48091 7.58252 5.64269 7.18532H5.02498C4.94149 7.30476 4.87805 7.34011 4.71107 7.34011C4.51732 7.34011 4.35035 7.1712 4.35035 6.9708H5.60814C5.66267 7.42034 6.01287 7.80809 6.49343 7.80809C6.70082 7.80809 6.8907 7.70616 7.00668 7.53385H7.01367V7.70968H7.64896V4.99609H7.01367ZM4.37039 6.57706C4.41047 6.40482 4.54409 6.2921 4.71107 6.2921C4.89469 6.2921 5.02165 6.40136 5.05501 6.57706H4.37039ZM6.62805 7.29657C6.39383 7.29657 6.24836 7.07826 6.24836 6.85043C6.24836 6.60682 6.37485 6.37266 6.62805 6.37266C6.89057 6.37266 6.99503 6.60682 6.99503 6.85043C6.99503 7.08132 6.88424 7.29657 6.62805 7.29657ZM9.64178 9.00177V8.95463C9.70383 8.95177 9.72733 8.92513 9.72733 8.88086V8.48006C9.72733 8.37986 9.70962 8.3475 9.63592 8.34451V8.29744L9.83918 8.2969V8.45942H9.84218C9.86129 8.38292 9.91448 8.27966 10.0028 8.27966C10.0652 8.27966 10.1141 8.32953 10.1141 8.40849C10.1141 8.46415 10.082 8.49378 10.0438 8.49378C10.0114 8.49378 9.97493 8.47247 9.97493 8.41681C9.97493 8.38139 10.005 8.3521 10.0201 8.34584C10.0175 8.33206 10.0025 8.32686 9.9963 8.32686C9.90609 8.32686 9.85389 8.54344 9.85389 8.67181V8.88093C9.85389 8.9252 9.87766 8.95183 9.97793 8.9547V9.00183L9.64178 9.00177ZM9.18585 8.6778C9.18585 8.4272 9.25955 8.33579 9.33618 8.33579C9.41148 8.33579 9.46455 8.4272 9.46455 8.6541C9.46455 8.87813 9.41148 8.97247 9.33332 8.97247C9.27287 8.97254 9.18585 8.90463 9.18585 8.6778ZM9.00003 8.34471C9.03891 8.34863 9.05908 8.36108 9.05908 8.42074V9.1495C9.05908 9.19378 9.03565 9.22014 8.96481 9.22314V9.27034H9.29497V9.22314C9.20955 9.22008 9.18585 9.19378 9.18585 9.1495V8.92387H9.18885C9.21834 8.97846 9.26701 9.01961 9.34357 9.01961C9.50429 9.01961 9.60882 8.85316 9.60882 8.6497C9.60882 8.49923 9.52493 8.27979 9.35669 8.27979C9.26255 8.27979 9.2021 8.34757 9.17999 8.41834H9.17713V8.29697H9.00003V8.34471ZM7.5399 9.0025V8.95516C7.63105 8.94917 7.64903 8.93159 7.64903 8.85496V8.13612C7.64903 8.05942 7.63105 8.04191 7.5399 8.03585V7.98878H8.23518V8.34364H8.18798C8.15509 8.15316 8.09956 8.03585 7.92712 8.03585C7.82273 8.03585 7.79317 8.06827 7.79317 8.13612V8.44264H7.84736C7.95216 8.44264 7.97846 8.38805 7.99483 8.26561H8.04177V8.67227H7.99483C7.97426 8.54857 7.93578 8.49864 7.84463 8.49864H7.79317V8.85503C7.79317 8.91408 7.81541 8.95523 7.90369 8.95523C8.09377 8.95523 8.18258 8.86402 8.20862 8.63718H8.25582V9.00257L7.5399 9.0025ZM8.97014 9.0025H8.66361V8.95516C8.71954 8.95516 8.73139 8.94191 8.73139 8.92294C8.73139 8.90217 8.71827 8.88579 8.60775 8.71954C8.51487 8.86681 8.49876 8.89471 8.49876 8.91402C8.49876 8.93892 8.52233 8.9521 8.56641 8.95516V9.0025H8.31388V8.95516C8.3706 8.94644 8.40895 8.9258 8.45316 8.85796L8.57539 8.66934L8.38685 8.38352C8.36774 8.35416 8.35449 8.3483 8.30715 8.34537V8.29804H8.59883V8.34537C8.55329 8.34537 8.53278 8.34957 8.53278 8.37626C8.53278 8.39677 8.5489 8.41015 8.65203 8.56908C8.7433 8.42493 8.75815 8.40856 8.75815 8.3778C8.75815 8.35709 8.74191 8.34537 8.68731 8.34537V8.29804H8.92879V8.34537C8.8969 8.34537 8.85389 8.36894 8.81994 8.41748L8.68445 8.61641L8.86574 8.89344C8.88964 8.93059 8.90995 8.94764 8.97014 8.95509V9.0025ZM10.2711 8.58978C10.2711 8.4013 10.3272 8.3278 10.4112 8.3278C10.4893 8.3278 10.5333 8.4013 10.5333 8.58978H10.2711ZM10.6777 8.64564C10.6777 8.43359 10.5745 8.28053 10.4112 8.28053C10.2448 8.28053 10.1269 8.43366 10.1269 8.65017C10.1269 8.83452 10.2474 9.02001 10.4304 9.02001C10.5699 9.02001 10.6465 8.93539 10.6761 8.79391L10.6289 8.78519C10.6026 8.88898 10.5536 8.96402 10.4448 8.96402C10.3461 8.96402 10.2711 8.8519 10.2711 8.64571L10.6777 8.64564ZM10.7532 9.0025V8.75609H10.8005C10.8149 8.84904 10.8747 8.9728 10.9831 8.9728C11.0566 8.9728 11.1126 8.92866 11.1126 8.84471C11.1126 8.65469 10.7591 8.73878 10.7591 8.47939C10.7591 8.38805 10.8254 8.28059 10.955 8.28059C11.0359 8.28059 11.0684 8.32473 11.095 8.32473C11.1096 8.32473 11.1126 8.30855 11.1185 8.2981H11.1655V8.51175H11.1185C11.1022 8.42913 11.0526 8.32786 10.961 8.32786C10.896 8.32786 10.8533 8.37047 10.8533 8.43372C10.8533 8.61062 11.2185 8.53099 11.2185 8.8019C11.2185 8.89351 11.1465 9.02001 10.9905 9.02001C10.8916 9.02001 10.8622 8.96695 10.8266 8.96695C10.8106 8.96695 10.8032 8.98918 10.8004 9.0025H10.7532ZM11.2683 9.0025V8.75609H11.3157C11.3301 8.84904 11.3898 8.9728 11.4982 8.9728C11.5717 8.9728 11.6277 8.92866 11.6277 8.84471C11.6277 8.65469 11.2743 8.73878 11.2743 8.47939C11.2743 8.38805 11.3407 8.28059 11.4702 8.28059C11.5511 8.28059 11.5835 8.32473 11.61 8.32473C11.6247 8.32473 11.6277 8.30855 11.6338 8.2981H11.6807V8.51175H11.6338C11.6174 8.42913 11.5677 8.32786 11.4761 8.32786C11.4112 8.32786 11.3684 8.37047 11.3684 8.43372C11.3684 8.61062 11.7337 8.53099 11.7337 8.8019C11.7337 8.89351 11.6616 9.02001 11.5054 9.02001C11.4068 9.02001 11.3773 8.96695 11.3417 8.96695C11.3257 8.96695 11.3183 8.98918 11.3156 9.0025H11.2683Z" fill="white"/>
<path fill-rule="evenodd" clip-rule="evenodd" d="M11.6738 7.5355C11.6739 7.51256 11.6784 7.48987 11.6873 7.4687C11.6961 7.44753 11.709 7.42831 11.7252 7.41213C11.7415 7.39596 11.7608 7.38314 11.782 7.37443C11.8032 7.36571 11.8259 7.36126 11.8489 7.36133C11.8717 7.36133 11.8944 7.36584 11.9155 7.37459C11.9366 7.38335 11.9558 7.39618 11.9719 7.41235C11.9881 7.42853 12.0009 7.44773 12.0096 7.46886C12.0184 7.48999 12.0229 7.51263 12.0228 7.5355C12.023 7.55842 12.0186 7.58115 12.0099 7.60237C12.0012 7.62359 11.9884 7.64288 11.9722 7.65913C11.9561 7.67539 11.9368 7.68829 11.9157 7.69709C11.8945 7.70588 11.8718 7.71041 11.8489 7.7104C11.8259 7.71048 11.8031 7.70601 11.7818 7.69725C11.7606 7.68849 11.7412 7.67561 11.725 7.65936C11.7087 7.6431 11.6958 7.62379 11.687 7.60253C11.6783 7.58128 11.6738 7.55849 11.6738 7.5355ZM11.9923 7.5355C11.9923 7.49747 11.9772 7.461 11.9503 7.43411C11.9234 7.40721 11.887 7.39207 11.8489 7.39202C11.8108 7.39195 11.7742 7.40702 11.7471 7.43391C11.72 7.46081 11.7047 7.49734 11.7046 7.5355C11.7046 7.61532 11.7691 7.67984 11.8489 7.67984C11.8678 7.67979 11.8865 7.67601 11.904 7.66873C11.9214 7.66144 11.9372 7.65079 11.9505 7.63739C11.9639 7.62398 11.9744 7.60809 11.9816 7.5906C11.9888 7.57312 11.9924 7.55439 11.9923 7.5355ZM11.8117 7.54702V7.63576H11.7798V7.43064H11.8461C11.8836 7.43064 11.9226 7.44089 11.9226 7.48729C11.9226 7.51086 11.9083 7.52951 11.8808 7.53516V7.53616C11.9092 7.54169 11.9125 7.55421 11.9156 7.57644C11.9184 7.59582 11.9208 7.61719 11.9278 7.63583H11.8869C11.8845 7.62431 11.8814 7.61126 11.88 7.59908C11.8776 7.58144 11.8776 7.56519 11.8682 7.55547C11.8604 7.54708 11.8498 7.54808 11.8386 7.54708L11.8117 7.54702ZM11.8455 7.51519C11.8758 7.51406 11.8827 7.50154 11.8827 7.48583C11.8827 7.47058 11.8758 7.46259 11.8503 7.46259H11.8117V7.51519H11.8455Z" fill="#D9782D"/>
</g>
<defs>
<clipPath id="clip0_37780_23616">
<rect width="14" height="14" fill="white"/>
</clipPath>
</defs>
</svg>
