<svg width="14" height="14" viewBox="0 0 14 14" fill="none" xmlns="http://www.w3.org/2000/svg">
<g clip-path="url(#clip0_37780_23642)">
<path d="M3.43021 0.652344C4.95358 0.652344 7.4079 1.62768 9.03282 2.53457C10.827 3.54412 13.349 5.58034 13.349 6.98346C13.349 8.47212 10.7593 10.457 9.03282 11.4323C7.45867 12.305 5.05514 13.3317 3.48099 13.3317C3.05783 13.3317 2.71931 13.2632 2.46541 13.1263C1.22979 12.4248 0.654297 9.44746 0.654297 6.98346C0.654297 5.73434 0.806634 4.41679 1.09438 3.32168C1.43291 2.02123 1.90684 1.16568 2.46541 0.840566C2.70238 0.720788 3.02398 0.652344 3.43021 0.652344Z" fill="#A6ACB2"/>
<path d="M12.9246 7.01805C12.9246 5.95716 10.9442 4.09205 8.82842 2.91138C6.37411 1.5596 3.59819 0.77249 2.68417 1.26871C1.65167 1.85049 1.07617 4.75938 1.07617 7.01805C1.07617 9.29382 1.61781 12.1685 2.68417 12.7674C3.6659 13.3149 6.32333 12.5107 8.8115 11.1076C10.9781 9.92694 12.9246 8.14738 12.9246 7.01805Z" fill="url(#paint0_radial_37780_23642)"/>
<path d="M10.149 8.09558L10.1321 7.01758C10.1321 6.77803 10.0475 6.67536 9.86129 6.67536C9.79358 6.67536 9.70895 6.69247 9.64124 6.7438C9.55661 6.79514 9.50583 6.82936 9.47198 6.84647L9.45505 6.86358V8.07847C9.45505 8.07847 9.45506 8.09558 9.43813 8.09558H8.96419C8.96419 8.09558 8.94727 8.09558 8.94727 8.07847V6.36736C8.94727 6.33314 8.96419 6.31603 8.99804 6.31603H9.4212C9.4212 6.31603 9.43813 6.31603 9.43813 6.33314V6.47003C9.43813 6.47003 9.43813 6.48714 9.45505 6.48714H9.47198L9.48891 6.47003C9.53969 6.4358 9.62432 6.38447 9.6751 6.36736C9.79358 6.31603 9.91207 6.29891 10.0136 6.29891C10.4029 6.29891 10.606 6.52136 10.606 6.94914V8.09558C10.606 8.09558 10.606 8.11269 10.5891 8.11269L10.149 8.09558ZM11.0292 8.09558C11.0123 8.09558 11.0123 8.09558 11.0292 8.09558L11.0123 5.46047C11.0123 5.44336 11.0123 5.44336 11.0292 5.44336C11.0631 5.44336 11.3169 5.61447 11.4016 5.70003C11.4693 5.76847 11.5031 5.87114 11.5031 5.95669V8.06136C11.5031 8.06136 11.5031 8.07847 11.4862 8.07847H11.0292" fill="white"/>
<path d="M5.83316 7.20631C5.83316 7.83942 5.42693 8.13031 4.91914 8.13031C4.41135 8.13031 4.00512 7.83942 4.00512 7.20631C4.00512 6.5732 4.41135 6.28231 4.91914 6.28231C5.42693 6.28231 5.83316 6.5732 5.83316 7.20631ZM5.32537 7.20631C5.32537 6.86409 5.15611 6.7272 4.93607 6.7272C4.71603 6.7272 4.54676 6.8812 4.54676 7.20631C4.54676 7.51431 4.71603 7.68542 4.93607 7.68542C5.15611 7.70254 5.32537 7.53142 5.32537 7.20631ZM8.21977 5.83742C8.21977 5.82031 8.21977 5.82031 8.20285 5.82031C8.16899 5.82031 7.89817 5.99142 7.83047 6.07698C7.76276 6.14542 7.72891 6.24809 7.72891 6.33365V7.48009C7.72891 7.97631 8.01666 8.13031 8.32133 8.13031C8.49059 8.13031 8.60908 8.1132 8.67678 8.06187C8.69371 8.06187 8.71064 8.04476 8.71064 8.01054V7.68542C8.71064 7.66831 8.71064 7.66831 8.69371 7.66831C8.67678 7.66831 8.5583 7.71965 8.49059 7.71965C8.33826 7.71965 8.2367 7.6512 8.2367 7.39454V6.74431C8.2367 6.7272 8.2367 6.7272 8.25363 6.7272H8.67678C8.69371 6.7272 8.69371 6.7272 8.69371 6.71009V6.36787C8.69371 6.33365 8.67678 6.31654 8.64293 6.31654H8.25363C8.2367 6.31654 8.2367 6.31653 8.2367 6.29942L8.21977 5.83742ZM2.10938 6.38498C2.10938 6.35076 2.14323 6.33365 2.16015 6.33365H2.82028C3.48041 6.33365 3.81893 6.7272 3.81893 7.24053C3.81893 7.75387 3.44655 8.1132 2.82028 8.1132H2.61716C2.60024 8.1132 2.60024 8.1132 2.60024 8.13031V8.96876C2.60024 8.98587 2.60024 8.98587 2.58331 8.98587C2.54946 8.98587 2.27864 8.81476 2.21093 8.7292C2.14323 8.66076 2.10938 8.55809 2.10938 8.47254V6.38498ZM3.32807 7.20631C3.32807 6.98387 3.19266 6.77854 2.82028 6.77854H2.61716C2.60024 6.77854 2.60024 6.77854 2.60024 6.79565V7.61698C2.60024 7.63409 2.60024 7.63409 2.61716 7.63409H2.82028C3.26036 7.63409 3.32807 7.32609 3.32807 7.20631ZM7.25497 7.13787C7.15342 7.06942 7.01801 7.0352 6.89952 7.01809C6.8826 7.01809 6.79796 7.00098 6.78104 6.98387C6.6287 6.94965 6.51022 6.91542 6.51022 6.82987C6.51022 6.74431 6.59485 6.69298 6.71333 6.69298C6.86567 6.69298 7.08571 6.7272 7.32268 6.81276C7.33961 6.81276 7.35653 6.81276 7.35653 6.79565V6.45342C7.35653 6.43631 7.33961 6.40209 7.32268 6.40209C7.23805 6.36787 6.98415 6.29942 6.78104 6.29942C6.54407 6.29942 6.35788 6.35076 6.22247 6.45342C6.08706 6.55609 6.01935 6.69298 6.01935 6.86409C6.01935 7.25765 6.34095 7.32609 6.64563 7.39454C6.69641 7.41165 6.67948 7.41165 6.69641 7.41165C6.83182 7.44587 6.98415 7.48009 6.98415 7.58276C6.98415 7.61698 6.96723 7.6512 6.9503 7.66831C6.91645 7.70253 6.84874 7.71965 6.74718 7.71965C6.56099 7.71965 6.18862 7.63409 6.08706 7.59987C6.07013 7.59987 6.07013 7.61698 6.07013 7.61698V7.9592C6.07013 7.97631 6.08706 8.01054 6.10398 8.01054C6.10398 8.01054 6.42558 8.1132 6.71333 8.1132C7.23805 8.1132 7.50887 7.90787 7.50887 7.53142C7.45809 7.36031 7.39038 7.22342 7.25497 7.13787Z" fill="#383792"/>
<path d="M4.15635 5.87055C4.12249 5.87055 4.08864 5.85344 4.08864 5.8021V5.59677C4.08864 5.54544 4.12249 5.51121 4.17327 5.51121H5.67972C5.73049 5.51121 5.76435 5.54544 5.76435 5.59677V5.78499C5.76435 5.83632 5.74742 5.85344 5.69664 5.85344H4.15635M5.51045 5.32299C5.49353 5.32299 5.4766 5.32299 5.4766 5.30588V5.27166C5.52738 5.11766 5.69664 4.63855 5.69664 4.63855C5.71357 4.60432 5.69664 4.5701 5.66279 4.55299L5.57816 4.51877H5.56123C5.5443 4.51877 5.52738 4.51877 5.52738 4.53588C5.49353 4.62144 5.4766 4.67277 5.44275 4.75832C5.44275 4.77544 5.42582 4.77544 5.40889 4.77544H5.23963C5.22271 4.77544 5.2227 4.77544 5.20578 4.75832V4.7241C5.25656 4.5701 5.29041 4.45032 5.35812 4.31344C5.37504 4.29632 5.39197 4.24499 5.45967 4.24499H5.49353C5.5443 4.2621 5.61201 4.27921 5.67972 4.29632C5.73049 4.31344 5.78127 4.33055 5.84898 4.34766C6.01824 4.4161 6.01824 4.53588 5.98439 4.65566C5.96746 4.7241 5.8659 5.01499 5.7982 5.1861C5.78127 5.22032 5.78127 5.25455 5.76435 5.27166C5.76435 5.28877 5.74742 5.30588 5.71357 5.30588H5.51045V5.32299ZM4.81647 5.32299C4.78262 5.32299 4.78262 5.28877 4.78262 5.27166C4.78262 5.25455 4.76569 4.36477 4.76569 4.24499C4.76569 4.22788 4.76569 4.21077 4.78262 4.21077C4.78262 4.21077 4.79955 4.19366 4.81647 4.19366H5.05344C5.07037 4.19366 5.07037 4.19366 5.08729 4.21077C5.10422 4.22788 5.10422 4.24499 5.10422 4.24499C5.10422 4.36477 5.08729 5.25455 5.08729 5.27166C5.08729 5.27166 5.08729 5.32299 5.05344 5.32299H4.81647ZM4.12249 5.32299C4.08864 5.32299 4.08864 5.30588 4.07172 5.28877C4.07172 5.27166 4.05479 5.23744 4.03786 5.20321C3.97016 5.0321 3.88553 4.75832 3.85167 4.67277C3.81782 4.55299 3.81782 4.4161 3.98708 4.36477C4.03786 4.34766 4.10557 4.33055 4.15635 4.31344C4.22405 4.29632 4.29176 4.27921 4.34254 4.2621H4.37639C4.42717 4.2621 4.46102 4.29632 4.47795 4.33055C4.54565 4.46744 4.57951 4.58721 4.63028 4.74121V4.77544C4.63028 4.77544 4.61336 4.79255 4.59643 4.79255H4.42717C4.41024 4.79255 4.39332 4.79255 4.39332 4.77544C4.35946 4.68988 4.34254 4.62144 4.30868 4.55299C4.30868 4.55299 4.29176 4.53588 4.27483 4.53588H4.25791L4.17327 4.5701C4.13942 4.58721 4.12249 4.62144 4.13942 4.65566C4.13942 4.65566 4.30868 5.13477 4.35946 5.28877V5.32299C4.35946 5.32299 4.34254 5.3401 4.32561 5.3401C4.32561 5.32299 4.12249 5.32299 4.12249 5.32299ZM4.91803 4.02255C4.90111 4.02255 4.90111 4.02255 4.88418 4.00544C4.81647 3.9541 4.74877 3.88566 4.69799 3.81721C4.69799 3.81721 4.68106 3.8001 4.69799 3.76588C4.74877 3.68032 4.8334 3.62899 4.90111 3.56055H4.93496C5.00266 3.61188 5.07037 3.68032 5.13807 3.76588C5.155 3.78299 5.155 3.8001 5.13807 3.81721C5.08729 3.88566 5.01959 3.9541 4.95188 4.00544C4.93496 4.02255 4.93496 4.02255 4.91803 4.02255Z" fill="white"/>
</g>
<defs>
<radialGradient id="paint0_radial_37780_23642" cx="0" cy="0" r="1" gradientUnits="userSpaceOnUse" gradientTransform="translate(4.22921 5.55642) scale(8.3181 8.40891)">
<stop stop-color="#FFC429"/>
<stop offset="1" stop-color="#F26F23"/>
</radialGradient>
<clipPath id="clip0_37780_23642">
<rect width="14" height="14" fill="white"/>
</clipPath>
</defs>
</svg>
