<svg width="25" height="24" viewBox="0 0 25 24" fill="none" xmlns="http://www.w3.org/2000/svg">
<g clip-path="url(#clip0_39051_24191)">
<path d="M0.530886 8.44597C0.530525 8.62051 0.568407 8.793 0.641867 8.95132C0.715327 9.10965 0.822581 9.24995 0.956086 9.36237L1.29889 17.2508C1.31 17.5601 1.44102 17.853 1.66423 18.0675C1.88744 18.282 2.18533 18.4012 2.49489 18.4H3.76289C4.07285 18.3997 4.37074 18.2797 4.59435 18.0651C4.81796 17.8504 4.94999 17.5577 4.96289 17.248L5.22969 10.5552C6.96689 11.1472 8.81449 12.0472 9.81129 13.3756C12.0445 16.3556 13.7673 18.3916 17.8153 18.3916C19.0378 18.3742 20.2542 18.2159 21.4405 17.92L23.6609 17.2856C23.911 17.2131 24.1309 17.0616 24.2877 16.8537C24.4446 16.6458 24.5299 16.3928 24.5309 16.1324V14.6604C24.5309 14.4747 24.4877 14.2915 24.4049 14.1253C24.322 13.9591 24.2017 13.8144 24.0535 13.7025C23.9052 13.5907 23.733 13.5148 23.5504 13.4809C23.3678 13.4469 23.1799 13.4558 23.0013 13.5068L21.2393 14.0104C20.9933 14.0684 20.7593 14.1204 20.5309 14.1704V11.592C20.531 11.4084 20.4888 11.2274 20.4077 11.0628C20.3265 10.8981 20.2085 10.7544 20.0629 10.6428L16.4629 7.87557C16.2855 7.73898 16.0733 7.65476 15.8505 7.63243C15.6277 7.61011 15.4031 7.65057 15.2021 7.74924C15.0011 7.84792 14.8317 8.00087 14.7131 8.1908C14.5945 8.38072 14.5314 8.60005 14.5309 8.82397V13.6936C13.6813 13.0436 12.9365 12.0368 11.9249 10.6676C11.7125 10.3796 11.4889 10.0768 11.2509 9.75997C9.27929 7.13077 4.06409 6.06637 1.91329 5.73037C1.74226 5.70407 1.56757 5.71507 1.40119 5.76261C1.23481 5.81015 1.08068 5.89311 0.949373 6.00581C0.818063 6.1185 0.712678 6.25826 0.640444 6.4155C0.56821 6.57274 0.530837 6.74374 0.530886 6.91677V8.44597ZM4.16329 17.2132C4.15917 17.3167 4.11531 17.4147 4.04081 17.4867C3.96631 17.5588 3.86692 17.5993 3.76329 17.6H2.49489C2.39219 17.6006 2.29331 17.561 2.21929 17.4899C2.14526 17.4187 2.10192 17.3214 2.09849 17.2188L1.77089 9.67077C2.67123 9.83237 3.56203 10.0432 4.43929 10.3024L4.16329 17.2132ZM15.3309 8.82397C15.3312 8.74938 15.3524 8.67636 15.3921 8.61318C15.4317 8.55 15.4883 8.49916 15.5553 8.46642C15.6223 8.43367 15.6972 8.42032 15.7714 8.42788C15.8456 8.43544 15.9162 8.46359 15.9753 8.50917L19.5753 11.276C19.6239 11.3131 19.6634 11.3609 19.6906 11.4157C19.7179 11.4705 19.7322 11.5308 19.7325 11.592V14.3308C17.6737 14.7096 16.3725 14.6596 15.3325 14.1796L15.3309 8.82397ZM1.33089 6.91677C1.33052 6.85877 1.34286 6.80138 1.36705 6.74865C1.39124 6.69593 1.42668 6.64914 1.47089 6.61157C1.54197 6.55 1.63284 6.51607 1.72689 6.51597C1.74793 6.51592 1.76894 6.51766 1.78969 6.52117C3.84409 6.84117 8.81529 7.84557 10.6109 10.2412C10.8477 10.5568 11.0701 10.858 11.2813 11.144C13.9665 14.7792 15.0777 16.2824 21.4413 14.786L23.2217 14.2772C23.2811 14.2603 23.3435 14.2574 23.4042 14.2688C23.4649 14.2801 23.5221 14.3053 23.5714 14.3424C23.6207 14.3795 23.6608 14.4275 23.6884 14.4827C23.7161 14.5378 23.7306 14.5987 23.7309 14.6604V16.1324C23.7305 16.2192 23.7021 16.3036 23.6498 16.373C23.5976 16.4423 23.5243 16.4929 23.4409 16.5172L21.2409 17.1464C15.2349 18.56 13.2993 16.6956 10.4509 12.896C8.44529 10.222 3.63969 9.16957 1.66689 8.83997C1.57326 8.8248 1.48807 8.77685 1.42653 8.70468C1.36498 8.63251 1.33109 8.54082 1.33089 8.44597V6.91677Z" fill="white"/>
</g>
<defs>
<clipPath id="clip0_39051_24191">
<rect width="24" height="24" fill="white" transform="translate(0.530884)"/>
</clipPath>
</defs>
</svg>
