<svg width="25" height="24" viewBox="0 0 25 24" fill="none" xmlns="http://www.w3.org/2000/svg">
<g clip-path="url(#clip0_39051_24188)">
<path d="M23.0345 12.4649C22.9945 12.4561 22.9189 12.4457 22.8129 12.4317C19.8233 12.0397 17.3689 10.7469 14.9749 8.95805C14.3108 8.41866 13.5811 7.96547 12.8033 7.60925C12.383 7.42156 11.9388 7.29301 11.4833 7.22725L9.58845 6.19325C9.25826 6.01474 8.87591 5.95768 8.50798 6.03201C8.14006 6.10634 7.80985 6.30736 7.57485 6.60005C7.56805 6.60845 7.55725 6.62445 7.54765 6.64005C7.23166 7.04255 7.08239 7.55108 7.1307 8.06051C7.17902 8.56994 7.42122 9.04134 7.80725 9.37725L7.82045 9.38845C6.56445 10.1625 5.02525 10.4685 4.23885 9.42845C3.69365 8.70125 3.12965 8.31205 2.56365 8.27165C2.37826 8.25221 2.19094 8.2785 2.01807 8.34824C1.8452 8.41797 1.69206 8.52902 1.57205 8.67165C0.781842 10.1246 0.501042 11.8004 0.774451 13.4317C0.845186 13.9444 0.960831 14.4499 1.12005 14.9425V16.4001C1.12005 16.8244 1.28862 17.2314 1.58868 17.5314C1.88874 17.8315 2.2957 18.0001 2.72005 18.0001H16.9317C21.5293 18.0001 23.9897 17.0549 24.4473 15.1109C24.4529 15.1031 24.4581 15.0951 24.4629 15.0869C24.6354 14.8232 24.7143 14.5092 24.6869 14.1953C24.6869 13.3981 23.9465 12.6549 23.0345 12.4649ZM22.8693 13.2477C23.4201 13.3625 24.0001 13.8681 23.8949 14.4001H19.0869C19.1253 13.726 19.3064 13.0678 19.6181 12.4689C20.6159 12.8373 21.6524 13.0909 22.7077 13.2249C22.7845 13.2349 22.8377 13.2401 22.8693 13.2477ZM8.18645 7.12005C8.19245 7.11205 8.20205 7.09845 8.21085 7.08485C8.32991 6.94386 8.49391 6.8482 8.67525 6.81395C8.85658 6.77971 9.04417 6.80899 9.20645 6.89685L10.1501 7.41165C9.94323 7.50228 9.75928 7.63799 9.61165 7.80885C9.27642 8.21252 8.90118 8.5812 8.49165 8.90925L8.33485 8.77285C8.10128 8.56996 7.95535 8.2845 7.92768 7.97635C7.90001 7.6682 7.99276 7.36131 8.18645 7.12005ZM10.2333 8.31205C10.2457 8.29725 10.5465 7.94765 11.3669 8.02085C11.6205 8.04732 11.8696 8.10717 12.1077 8.19885L11.5877 8.97925C11.5582 9.02298 11.5377 9.07209 11.5273 9.12376C11.5169 9.17543 11.5169 9.22865 11.5271 9.28035C11.5374 9.33205 11.5577 9.38122 11.587 9.42502C11.6163 9.46883 11.654 9.50641 11.6979 9.53561C11.7418 9.56481 11.791 9.58505 11.8427 9.59517C11.8944 9.60529 11.9476 9.60508 11.9993 9.59457C12.0509 9.58405 12.1 9.56343 12.1436 9.5339C12.1873 9.50436 12.2247 9.46649 12.2537 9.42245L12.8537 8.52285C13.1563 8.67649 13.4482 8.85021 13.7277 9.04285L13.1721 9.75285C13.1067 9.83645 13.0772 9.94258 13.0901 10.0479C13.103 10.1532 13.1573 10.2491 13.2409 10.3145C13.3244 10.3798 13.4306 10.4093 13.5359 10.3964C13.6412 10.3835 13.7371 10.3293 13.8025 10.2457L14.3777 9.51045C14.4177 9.54045 14.4553 9.56725 14.4977 9.59805C14.7017 9.75045 14.9165 9.91005 15.1465 10.0757L14.7733 10.5529C14.7409 10.5942 14.717 10.6416 14.703 10.6922C14.6889 10.7429 14.685 10.7958 14.6913 10.8479C14.7042 10.9532 14.7585 11.0491 14.8421 11.1145C14.9256 11.1798 15.0318 11.2093 15.1371 11.1964C15.2424 11.1835 15.3383 11.1293 15.4037 11.0457L15.8061 10.5313C16.0533 10.6949 16.3225 10.8641 16.6201 11.0397L16.3741 11.3517C16.3084 11.435 16.2785 11.5411 16.2911 11.6465C16.3036 11.7519 16.3575 11.848 16.4409 11.9137C16.5242 11.9793 16.6303 12.0092 16.7357 11.9966C16.8411 11.9841 16.9372 11.9302 17.0029 11.8469L17.3261 11.4357C17.8653 11.7257 18.3789 11.9689 18.8609 12.1713C18.517 12.8669 18.3183 13.6252 18.2769 14.4001H8.79685C8.22295 13.5898 7.49381 12.9015 6.65176 12.3754C5.8097 11.8492 4.87151 11.4955 3.89165 11.3349C4.19408 11.1612 4.48231 10.9639 4.75365 10.7449C6.60205 11.3725 8.86605 9.95245 10.2333 8.31125V8.31205ZM1.79325 14.4001C1.69423 14.0431 1.6186 13.6801 1.56685 13.3133C1.51317 12.9522 1.4855 12.5878 1.48405 12.2229C1.77626 12.1631 2.06529 12.0887 2.35005 12.0001C3.37544 11.9776 4.39321 12.181 5.33124 12.5958C6.26928 13.0105 7.10461 13.6265 7.77805 14.4001H1.79325ZM2.22805 9.13005C2.31713 9.07712 2.42112 9.05492 2.52405 9.06685C2.9757 9.19984 3.36 9.49936 3.59925 9.90485C3.71625 10.058 3.85046 10.1972 3.99925 10.3197C3.4419 10.7129 2.82646 11.0166 2.17525 11.2197C1.96965 11.2869 1.75325 11.3441 1.53165 11.3961C1.61249 10.6023 1.84914 9.83223 2.22805 9.13005ZM16.9317 17.2001H2.72005C2.50788 17.2001 2.30439 17.1158 2.15437 16.9657C2.00434 16.8157 1.92005 16.6122 1.92005 16.4001V15.2001H23.5757C23.0145 16.5269 20.7853 17.2001 16.9317 17.2001Z" fill="white"/>
</g>
<defs>
<clipPath id="clip0_39051_24188">
<rect width="24" height="24" fill="white" transform="translate(0.68689)"/>
</clipPath>
</defs>
</svg>
