<svg width="25" height="24" viewBox="0 0 25 24" fill="none" xmlns="http://www.w3.org/2000/svg">
<g clip-path="url(#clip0_39051_24196)">
<path d="M2.80559 10.5256C2.73169 10.6137 2.64115 10.6863 2.53916 10.7394C2.43717 10.7926 2.32571 10.825 2.21116 10.8351C2.09661 10.8451 1.9812 10.8325 1.87154 10.7979C1.76187 10.7633 1.66008 10.7075 1.57199 10.6336L0.843592 10.0216C0.755412 9.94764 0.682673 9.85703 0.629535 9.75496C0.576396 9.65288 0.543901 9.54133 0.533908 9.42668C0.523914 9.31204 0.536618 9.19655 0.571293 9.08682C0.605969 8.97708 0.661935 8.87527 0.735992 8.78718L1.73279 7.59998C1.53437 7.34654 1.40612 7.04535 1.3609 6.72667C1.31569 6.40799 1.3551 6.08301 1.47519 5.78438C1.99054 4.57849 2.69246 3.46122 3.55519 2.47358C4.53363 1.23438 5.90684 0.367512 7.44639 0.0171793C7.59668 -0.0129572 7.75226 -0.00274234 7.89732 0.0467845C8.04237 0.0963114 8.17172 0.183382 8.27219 0.299136C8.37266 0.41489 8.44067 0.555195 8.4693 0.705774C8.49794 0.856352 8.48617 1.01183 8.43519 1.15638C8.13519 2.00838 7.98639 3.19878 8.98119 4.03318C10.8736 5.62118 13.5632 5.63318 14.9984 5.49758C15.4428 5.45298 15.8893 5.55814 16.2671 5.79635C16.6449 6.03456 16.9323 6.39217 17.0836 6.81238C18.6713 11.359 21.0162 15.6046 24.0192 19.3696C24.258 19.6666 24.4197 20.018 24.4899 20.3926C24.5601 20.7671 24.5365 21.1533 24.4214 21.5166C24.3063 21.8799 24.1031 22.209 23.83 22.4748C23.5569 22.7406 23.2223 22.9348 22.856 23.04C21.6608 23.3851 20.3812 23.2868 19.2528 22.7632L18.4756 23.6884C18.4017 23.7765 18.3111 23.8491 18.209 23.902C18.1069 23.9549 17.9954 23.9872 17.8808 23.9968C17.8548 23.9988 17.8292 24 17.8032 24C17.5982 24.0001 17.3998 23.9275 17.2432 23.7952L16.5144 23.1832C16.3366 23.0336 16.2255 22.8196 16.2054 22.5882C16.1853 22.3567 16.2579 22.1268 16.4072 21.9488L17.0668 21.16L15.8572 20.1448L15.196 20.932C15.0459 21.109 14.832 21.2196 14.6009 21.2397C14.3697 21.2597 14.1399 21.1877 13.9616 21.0392L13.2336 20.4268C13.1453 20.3529 13.0725 20.2623 13.0193 20.1603C12.9661 20.0582 12.9336 19.9466 12.9235 19.832C12.9135 19.7173 12.9262 19.6018 12.9609 19.4921C12.9955 19.3823 13.0515 19.2805 13.1256 19.1924L13.854 18.326C12.8648 16.8201 11.6789 15.4532 10.3276 14.2616C9.34507 13.4046 8.2659 12.6652 7.11199 12.0584L6.08559 13.28C6.01166 13.3682 5.92101 13.4409 5.81886 13.494C5.71672 13.5471 5.60509 13.5794 5.49039 13.5892C5.46479 13.5912 5.43879 13.5924 5.41319 13.5924C5.20814 13.5923 5.00973 13.5196 4.85319 13.3872L4.12239 12.776C3.94544 12.6259 3.83493 12.4119 3.81493 12.1808C3.79493 11.9496 3.86705 11.7199 4.01559 11.5416L4.98159 10.392L3.77279 9.37518L2.80559 10.5256ZM1.34839 9.30198C1.34186 9.30958 1.33694 9.31843 1.33392 9.32798C1.33089 9.33754 1.32983 9.3476 1.33079 9.35758C1.3316 9.36742 1.3344 9.37699 1.339 9.38572C1.34361 9.39445 1.34993 9.40216 1.35759 9.40838L2.08639 10.0208C2.09402 10.0272 2.10284 10.032 2.11235 10.035C2.12186 10.038 2.13186 10.0391 2.14179 10.0382C2.15171 10.0373 2.16137 10.0345 2.17019 10.0298C2.17901 10.0252 2.18683 10.0188 2.19319 10.0112L3.16079 8.86038L2.31639 8.14998L1.34839 9.30198ZM19.7228 14.4984C19.2132 14.5534 18.723 14.7251 18.2904 15C18.2456 15.0274 18.1958 15.0457 18.1439 15.0538C18.092 15.062 18.039 15.0598 17.9879 15.0475C17.9368 15.0352 17.8887 15.0129 17.8462 14.9819C17.8037 14.951 17.7678 14.912 17.7404 14.8672C17.713 14.8223 17.6947 14.7726 17.6866 14.7207C17.6784 14.6687 17.6806 14.6157 17.6929 14.5647C17.7052 14.5136 17.7275 14.4655 17.7584 14.423C17.7894 14.3805 17.8284 14.3446 17.8732 14.3172C18.3103 14.0443 18.7931 13.8527 19.2984 13.7516C19.0884 13.3704 18.8804 12.9756 18.6736 12.5724C18.2376 12.65 17.8206 12.8109 17.4456 13.0464C17.3552 13.1019 17.2464 13.1191 17.1432 13.0944C17.04 13.0697 16.9509 13.005 16.8954 12.9146C16.8399 12.8241 16.8226 12.7154 16.8473 12.6122C16.8721 12.509 16.9368 12.4199 17.0272 12.3644C17.4211 12.1196 17.8518 11.9396 18.3028 11.8312C18.1127 11.4426 17.926 11.0442 17.7428 10.636C17.3376 10.7183 16.9506 10.8732 16.6004 11.0932C16.5557 11.1247 16.5051 11.1467 16.4516 11.1579C16.3981 11.1691 16.3429 11.1692 16.2894 11.1582C16.2358 11.1473 16.1851 11.1254 16.1403 11.0941C16.0956 11.0627 16.0577 11.0226 16.029 10.976C16.0004 10.9295 15.9816 10.8775 15.9738 10.8234C15.966 10.7694 15.9694 10.7142 15.9837 10.6615C15.9981 10.6088 16.023 10.5595 16.0571 10.5168C16.0912 10.4741 16.1337 10.4388 16.182 10.4132C16.5633 10.1767 16.9793 10.0012 17.4148 9.89318C17.246 9.49798 17.0812 9.09425 16.9204 8.68198C16.5075 8.76393 16.1127 8.91904 15.7544 9.13998C15.7095 9.16727 15.6597 9.18545 15.6078 9.19348C15.5559 9.20152 15.5029 9.19925 15.4518 9.18681C15.4008 9.17436 15.3527 9.15199 15.3103 9.12096C15.2679 9.08994 15.2321 9.05087 15.2048 9.00598C15.1775 8.96109 15.1593 8.91127 15.1513 8.85936C15.1433 8.80745 15.1455 8.75446 15.158 8.70343C15.1704 8.65239 15.1928 8.60431 15.2238 8.56192C15.2548 8.51953 15.2939 8.48367 15.3388 8.45638C15.7384 8.20906 16.1754 8.02792 16.6328 7.91998C16.5296 7.63998 16.4268 7.35998 16.3284 7.07398C16.2434 6.841 16.0882 6.64018 15.8841 6.49929C15.68 6.35841 15.4372 6.28443 15.1892 6.28758C15.1492 6.28758 15.1116 6.28758 15.0724 6.29278C14.2023 6.37543 13.3258 6.36444 12.458 6.25998C13.2319 10.0378 14.8946 13.577 17.3084 16.5844C17.3989 16.6813 17.5208 16.7432 17.6525 16.7592C17.7842 16.7751 17.9173 16.7441 18.0284 16.6716C18.7881 16.2261 19.6222 15.922 20.4904 15.774C20.2344 15.3648 19.9784 14.9408 19.7228 14.4984ZM17.018 22.4636C17.0072 22.4799 17.0022 22.4993 17.0039 22.5188C17.0055 22.5383 17.0138 22.5566 17.0272 22.5708L17.756 23.1828C17.7723 23.1935 17.7917 23.1984 17.8112 23.1967C17.8306 23.195 17.8489 23.1869 17.8632 23.1736L18.546 22.36C18.3914 22.2575 18.2425 22.1467 18.1 22.028L17.6796 21.6752L17.018 22.4636ZM13.738 19.7088C13.7315 19.7164 13.7266 19.7252 13.7235 19.7348C13.7205 19.7443 13.7195 19.7544 13.7204 19.7644C13.7212 19.7743 13.724 19.7839 13.7286 19.7927C13.7332 19.8015 13.7395 19.8093 13.7472 19.8156L14.4756 20.4276C14.4832 20.4342 14.492 20.4392 14.5016 20.4423C14.5111 20.4454 14.5212 20.4466 14.5312 20.4458C14.5413 20.445 14.551 20.4421 14.5599 20.4375C14.5689 20.4329 14.5768 20.4265 14.5832 20.4188L15.2444 19.632L14.3992 18.9224L13.738 19.7088ZM4.62799 12.0564C4.61512 12.0719 4.60891 12.0919 4.61071 12.112C4.61251 12.132 4.62217 12.1506 4.63759 12.1636L5.36639 12.7756C5.38252 12.7864 5.40186 12.7914 5.42121 12.7897C5.44056 12.788 5.45876 12.7798 5.47279 12.7664L6.43839 11.6176L5.59359 10.9072L4.62799 12.0564ZM7.21039 11.2232C8.52622 11.8617 9.74773 12.6786 10.8404 13.6508C12.3137 14.9444 13.5975 16.4391 14.654 18.0908L18.614 21.4144C19.1619 21.8768 19.8154 22.1969 20.5166 22.3464C21.2178 22.4959 21.9451 22.4702 22.634 22.2716C22.8734 22.2027 23.0921 22.0757 23.2706 21.9019C23.4491 21.728 23.5819 21.5128 23.6571 21.2752C23.7324 21.0377 23.7477 20.7853 23.7018 20.5404C23.6559 20.2955 23.5501 20.0657 23.394 19.8716C22.6576 18.958 21.8208 17.8316 20.9588 16.5116C20.0701 16.6203 19.2127 16.9085 18.4388 17.3588C18.2196 17.4898 17.969 17.559 17.7136 17.5588C17.5245 17.5598 17.3374 17.5209 17.1645 17.4444C16.9916 17.3679 16.8368 17.2557 16.7104 17.1152C14.1415 13.9202 12.393 10.1455 11.6172 6.11998C10.4628 5.89403 9.38127 5.38877 8.46719 4.64838C7.41679 3.76838 7.13759 2.43358 7.67959 0.894379C7.68435 0.882866 7.68571 0.870229 7.68352 0.857965C7.68132 0.845701 7.67565 0.834323 7.66719 0.825179C7.66016 0.815701 7.65066 0.808337 7.63972 0.803893C7.62879 0.799449 7.61684 0.798095 7.60519 0.799979C6.24216 1.11472 5.02809 1.88693 4.16519 2.98798C3.35687 3.91029 2.6993 4.95449 2.21679 6.08198C2.13399 6.28639 2.1183 6.51183 2.17201 6.72574C2.22572 6.93964 2.34604 7.13093 2.51559 7.27198L7.21039 11.2232Z" fill="white"/>
</g>
<defs>
<clipPath id="clip0_39051_24196">
<rect width="24" height="24" fill="white" transform="matrix(-1 0 0 1 24.5304 0)"/>
</clipPath>
</defs>
</svg>
