<svg width="25" height="24" viewBox="0 0 25 24" fill="none" xmlns="http://www.w3.org/2000/svg">
<g clip-path="url(#clip0_39051_24187)">
<path d="M23.1052 20.378C22.4952 20.1672 21.9624 19.986 21.494 19.8264C18.2672 18.7276 18.2056 18.7064 17.0272 17.4C14.5224 14.6493 12.2636 11.6842 10.2768 8.5388C9.88924 8.04636 9.70514 7.42407 9.76245 6.8C9.76245 6.7708 9.76005 5.9752 9.75685 5.0144C9.75245 3.5492 9.74645 1.6992 9.74645 1.596C9.74539 1.17304 9.5769 0.767704 9.27782 0.468624C8.97874 0.169545 8.57341 0.00105609 8.15045 0L3.34245 0C2.9181 0 2.51114 0.168571 2.21108 0.468629C1.91102 0.768687 1.74245 1.17565 1.74245 1.6C1.74245 3.2168 1.75085 4.4456 1.75685 5.3896C1.77685 8.4 1.77685 8.4 1.45045 8.92C1.38645 9.0228 1.31165 9.1424 1.22925 9.2876C0.291648 10.8656 0.429248 12.8692 0.942848 13.612C1.14285 16.0592 1.49965 20.5492 1.69405 23.0052C1.71559 23.2685 1.83518 23.5141 2.02915 23.6934C2.22313 23.8728 2.47735 23.9728 2.74152 23.9736C3.0057 23.9745 3.26056 23.8761 3.4557 23.6981C3.65083 23.52 3.772 23.2751 3.79525 23.012C3.95525 21.248 4.27045 17.7672 4.47525 15.5376C7.61765 17.3776 8.50445 19.1104 9.43045 20.9248C9.73325 21.5176 10.046 22.1312 10.4396 22.7464C11.0616 23.7264 11.5964 23.9892 12.4552 23.9892C12.6224 23.9892 12.8024 23.9792 12.9968 23.9624C16.4464 23.6588 19.9756 23.2824 23.4877 22.8488C23.7138 22.8509 23.9346 22.7796 24.1167 22.6455C24.2988 22.5114 24.4325 22.3218 24.4976 22.1052C24.5387 21.925 24.5385 21.7378 24.4969 21.5577C24.4553 21.3776 24.3735 21.2092 24.2576 21.0652C23.9472 20.7306 23.5472 20.4921 23.1052 20.378ZM3.00045 22.938C2.99495 23.0016 2.96583 23.0609 2.91882 23.1041C2.87181 23.1474 2.81032 23.1714 2.74645 23.1716C2.6828 23.1721 2.62131 23.1485 2.57434 23.1056C2.52737 23.0626 2.4984 23.0034 2.49325 22.94C2.31485 20.688 1.99925 16.724 1.79445 14.1936C2.50525 14.5036 3.14005 14.8092 3.71125 15.1136C3.51045 17.31 3.16765 21.0796 3.00045 22.938ZM23.7204 21.9116C23.7044 21.9748 23.6925 22.0164 23.3877 22.0548C19.8876 22.4892 16.3676 22.8628 12.9304 23.1656C11.9652 23.2456 11.6616 23.1744 11.1172 22.3164C10.7436 21.7328 10.44 21.1372 10.1456 20.5612C8.97925 18.28 7.77485 15.92 2.06605 13.44C1.8947 13.383 1.73747 13.2902 1.60485 13.1676C1.35285 12.8588 1.06325 11.1364 1.92205 9.6904C2.00205 9.55 2.07125 9.4392 2.13045 9.344C2.57845 8.6268 2.57805 8.566 2.55685 5.384C2.55085 4.44 2.54245 3.2144 2.54245 1.6C2.54245 1.38783 2.62673 1.18434 2.77676 1.03431C2.92679 0.884285 3.13027 0.8 3.34245 0.8H8.15045C8.36146 0.800317 8.56374 0.884283 8.71295 1.03349C8.86216 1.1827 8.94613 1.38499 8.94645 1.596C8.94645 1.6992 8.95245 3.5504 8.95685 5.0168C8.96005 5.9768 8.96245 6.7712 8.96245 6.8048C8.90707 7.58904 9.14023 8.36647 9.61805 8.9908C11.6356 12.158 13.9155 15.1502 16.4336 17.936C17.7508 19.3968 18.014 19.4864 21.2364 20.5836C21.7036 20.7436 22.2364 20.924 22.826 21.1276C23.128 21.2039 23.4063 21.3538 23.636 21.564C23.6742 21.6126 23.7016 21.6688 23.7165 21.7288C23.7313 21.7887 23.7332 21.8512 23.722 21.912L23.7204 21.9116Z" fill="white"/>
</g>
<defs>
<clipPath id="clip0_39051_24187">
<rect width="24" height="24" fill="white" transform="translate(0.530396)"/>
</clipPath>
</defs>
</svg>
