<svg width="25" height="24" viewBox="0 0 25 24" fill="none" xmlns="http://www.w3.org/2000/svg">
<g clip-path="url(#clip0_39051_24190)">
<path d="M2.93036 21.4483H6.98516C7.24328 21.452 7.49539 21.3704 7.70244 21.2162C7.90948 21.062 8.05989 20.8439 8.13036 20.5955C8.13189 20.5885 8.13529 20.582 8.14022 20.5767C8.14515 20.5714 8.15142 20.5675 8.15836 20.5655C8.84676 20.4355 11.208 20.0855 12.7224 20.9911C13.412 21.4055 14.5116 21.5967 15.7832 21.5967C18.3388 21.5967 21.5888 20.8239 23.596 19.5375C23.8822 19.3573 24.1181 19.1074 24.2815 18.8112C24.4449 18.515 24.5306 18.1822 24.5304 17.8439V16.2483H24.5256C24.5202 15.9131 24.4081 15.5883 24.2056 15.3211C23.6792 14.6303 22.5212 13.8691 19.9844 14.1743C19.6792 14.2117 19.3697 14.1591 19.094 14.0231C18.9808 13.9675 18.8456 13.9031 18.692 13.8303C17.2776 13.1599 14.3328 11.7599 13.2904 9.66914L12.9496 8.98354C12.0696 7.20994 11.3472 5.75474 10.3676 5.15994L9.75276 3.93474C9.60214 3.63265 9.35999 3.38582 9.06083 3.22946C8.76167 3.07309 8.42078 3.01517 8.08676 3.06394C7.6945 3.0919 7.31285 3.20397 6.96775 3.39253C6.62265 3.5811 6.32218 3.84174 6.08676 4.15674C5.90869 4.45696 5.79221 4.78964 5.74413 5.13537C5.69606 5.48109 5.71735 5.83293 5.80676 6.17034C4.49836 6.74274 3.16076 7.34394 2.43556 7.67154C2.2784 7.74237 2.1385 7.8465 2.02556 7.97674L1.21316 7.16554C1.13772 7.09268 1.03668 7.05236 0.931803 7.05327C0.826924 7.05418 0.726599 7.09625 0.652436 7.17042C0.578272 7.24458 0.536205 7.3449 0.535293 7.44978C0.534382 7.55466 0.5747 7.6557 0.647563 7.73114L1.73036 8.81394V12.2479C1.71493 12.7629 1.65727 13.2757 1.55796 13.7811C1.37863 14.5782 1.33803 15.4003 1.43796 16.2111C1.48126 16.4574 1.58123 16.6902 1.72996 16.8911V20.2471C1.72981 20.4049 1.76074 20.5611 1.821 20.7068C1.88126 20.8526 1.96966 20.985 2.08115 21.0966C2.19264 21.2082 2.32503 21.2966 2.47074 21.357C2.61646 21.4174 2.77264 21.4484 2.93036 21.4483ZM2.44116 13.3111C3.29487 13.4525 4.07394 13.8833 4.64756 14.5311C5.46096 15.3669 6.20476 16.2676 6.87156 17.2243C5.30716 17.0095 3.83596 16.8359 2.92156 16.7327C2.74962 16.7133 2.58869 16.6384 2.46316 16.5193C2.33764 16.4002 2.25436 16.2434 2.22596 16.0727C2.14373 15.3511 2.1843 14.6208 2.34596 13.9127C2.37996 13.7147 2.41036 13.5135 2.44116 13.3111ZM23.1664 18.8635C20.1824 20.7763 14.8156 21.3151 13.136 20.3035C11.4272 19.2799 8.98396 19.5963 8.01036 19.7795C7.85532 19.8102 7.71198 19.8837 7.59664 19.9917C7.48131 20.0998 7.39862 20.238 7.35796 20.3907C7.33198 20.4683 7.28157 20.5353 7.21428 20.5817C7.14699 20.6282 7.06646 20.6515 6.98476 20.6483H2.93036C2.82428 20.6483 2.72254 20.6062 2.64752 20.5312C2.57251 20.4562 2.53036 20.3544 2.53036 20.2483V17.4611C2.62838 17.4929 2.72926 17.5152 2.83156 17.5275C4.50596 17.7167 10.1464 18.3831 12.4208 19.0327C13.9809 19.4814 15.5947 19.7162 17.218 19.7307C19.36 19.7307 21.7488 19.2603 23.7304 17.6907V17.8443C23.7301 18.048 23.6783 18.2484 23.5796 18.4266C23.481 18.6048 23.3388 18.7551 23.1664 18.8635ZM23.4552 16.8851C22.0171 18.0635 20.2457 18.7612 18.3904 18.8799C18.6824 17.8799 19.1748 17.2567 19.8656 17.0255C21.4432 16.4983 22.5536 16.1263 23.1708 15.4355C23.3219 15.5387 23.4568 15.664 23.5708 15.8071C23.6926 15.9677 23.7486 16.1687 23.7271 16.3691C23.7056 16.5695 23.6083 16.7541 23.4552 16.8851ZM13.1928 10.9835L12.3244 11.5035C12.2793 11.5306 12.24 11.5663 12.2088 11.6085C12.1775 11.6507 12.1549 11.6987 12.1422 11.7497C12.1294 11.8006 12.1269 11.8536 12.1346 11.9056C12.1424 11.9576 12.1603 12.0075 12.1874 12.0525C12.2144 12.0976 12.2501 12.1369 12.2923 12.1681C12.3345 12.1994 12.3825 12.222 12.4335 12.2347C12.4845 12.2475 12.5375 12.25 12.5894 12.2423C12.6414 12.2345 12.6913 12.2166 12.7364 12.1895L13.7324 11.5895C14.1339 11.9877 14.5676 12.352 15.0292 12.6787L14.3244 13.1015C14.2793 13.1286 14.24 13.1643 14.2088 13.2065C14.1775 13.2487 14.1549 13.2967 14.1422 13.3477C14.1294 13.3986 14.1269 13.4516 14.1346 13.5036C14.1424 13.5556 14.1603 13.6055 14.1874 13.6505C14.2144 13.6956 14.2501 13.7349 14.2923 13.7661C14.3345 13.7974 14.3825 13.82 14.4335 13.8327C14.4845 13.8455 14.5375 13.848 14.5894 13.8403C14.6414 13.8325 14.6913 13.8146 14.7364 13.7875L15.7624 13.1719C16.2688 13.4895 16.77 13.7639 17.228 13.9991L16.7244 14.3015C16.6793 14.3286 16.64 14.3643 16.6088 14.4065C16.5775 14.4487 16.5549 14.4967 16.5422 14.5477C16.5294 14.5986 16.5269 14.6516 16.5346 14.7036C16.5424 14.7556 16.5603 14.8055 16.5874 14.8505C16.6144 14.8956 16.6501 14.9349 16.6923 14.9661C16.7345 14.9974 16.7825 15.02 16.8335 15.0327C16.8845 15.0455 16.9375 15.048 16.9894 15.0403C17.0414 15.0325 17.0913 15.0146 17.1364 14.9875L18.08 14.4207C18.174 14.4659 18.2652 14.5091 18.3496 14.5491C18.4992 14.6203 18.6296 14.6827 18.7408 14.7371C19.1558 14.9414 19.6212 15.0204 20.0804 14.9647C20.8491 14.848 21.6333 14.8827 22.3888 15.0671C21.8572 15.5071 20.9116 15.8271 19.6036 16.2651C18.59 16.6043 17.9044 17.5027 17.5532 18.9239C15.8918 18.9444 14.2363 18.7207 12.64 18.2599C11.0945 17.8756 9.52833 17.5797 7.94916 17.3735C7.14398 16.1547 6.2281 15.0126 5.21316 13.9619C4.51161 13.179 3.55967 12.6643 2.52036 12.5059C2.52476 12.4187 2.53036 12.3319 2.53036 12.2447V11.1531L11.322 7.57194C11.5168 7.92354 11.722 8.32234 11.9488 8.77194L10.7248 9.50434C10.6337 9.55887 10.5681 9.64733 10.5423 9.75025C10.5165 9.85316 10.5326 9.96212 10.5872 10.0531C10.6417 10.1442 10.7301 10.2098 10.8331 10.2356C10.936 10.2614 11.0449 10.2453 11.136 10.1907L12.3064 9.48994L12.5724 10.0263C12.7458 10.3658 12.9537 10.6866 13.1928 10.9835ZM6.75516 4.59714C6.93231 4.38177 7.15167 4.20493 7.39973 4.07753C7.64779 3.95013 7.91931 3.87485 8.19756 3.85634C8.36551 3.83131 8.53708 3.85985 8.68788 3.9379C8.83868 4.01596 8.96104 4.13956 9.03756 4.29114L9.33036 4.87594C9.00495 4.88325 8.68375 4.95107 8.38316 5.07594C7.88836 5.27394 7.24876 5.54394 6.56516 5.83954C6.47343 5.41614 6.54108 4.97378 6.75516 4.59714ZM2.76356 8.39994C4.01596 7.83474 7.09836 6.45114 8.67876 5.81914C9.61116 5.44634 10.2128 5.79914 10.9096 6.87554L2.53036 10.2891V8.76194C2.52976 8.68545 2.55151 8.61045 2.59294 8.54614C2.63436 8.48183 2.69367 8.43102 2.76356 8.39994Z" fill="white"/>
</g>
<defs>
<clipPath id="clip0_39051_24190">
<rect width="24" height="24" fill="white" transform="translate(0.530396)"/>
</clipPath>
</defs>
</svg>
