<svg width="25" height="24" viewBox="0 0 25 24" fill="none" xmlns="http://www.w3.org/2000/svg">
<g clip-path="url(#clip0_39051_24185)">
<path d="M2.28689 19.2001H23.0869C23.5112 19.2001 23.9182 19.0315 24.2183 18.7314C24.5183 18.4314 24.6869 18.0244 24.6869 17.6001V16.8001C24.6869 16.3757 24.5183 15.9687 24.2183 15.6687C23.9182 15.3686 23.5112 15.2 23.0869 15.2H21.4869V12.128C21.4863 11.8935 21.4174 11.6643 21.2885 11.4683C21.1596 11.2724 20.9764 11.1183 20.7613 11.0248L19.5593 10.508C19.3767 10.4306 19.1777 10.3995 18.9802 10.4176C18.7826 10.4356 18.5926 10.5023 18.427 10.6116C18.2615 10.7209 18.1255 10.8694 18.0313 11.044C17.937 11.2185 17.8874 11.4137 17.8869 11.612V15.2H16.2869V10.668C16.2876 10.4157 16.2085 10.1697 16.0609 9.96501C15.9133 9.76035 15.7049 9.60755 15.4653 9.52845L13.4653 8.86045C13.2851 8.79954 13.093 8.78282 12.905 8.81171C12.7171 8.8406 12.5388 8.91425 12.3853 9.02645C12.2312 9.13784 12.1057 9.28414 12.0191 9.45337C11.9325 9.62259 11.8872 9.80994 11.8869 10V15.2H3.88689V6.00005H9.88689C10.2051 6.00005 10.5104 5.87362 10.7354 5.64858C10.9605 5.42353 11.0869 5.11831 11.0869 4.80005V4.00005C11.0869 3.68179 10.9605 3.37656 10.7354 3.15152C10.5104 2.92648 10.2051 2.80005 9.88689 2.80005H1.88689C1.56863 2.80005 1.26341 2.92648 1.03836 3.15152C0.813318 3.37656 0.68689 3.68179 0.68689 4.00005L0.68689 17.6001C0.68689 18.0244 0.855461 18.4314 1.15552 18.7314C1.45558 19.0315 1.86254 19.2001 2.28689 19.2001ZM18.6869 11.612C18.6865 11.546 18.7028 11.481 18.7342 11.4229C18.7656 11.3648 18.8111 11.3155 18.8665 11.2796C18.9216 11.2427 18.985 11.22 19.0511 11.2136C19.1171 11.2073 19.1837 11.2175 19.2449 11.2432L20.4425 11.76C20.5145 11.7912 20.5759 11.8425 20.6193 11.9078C20.6626 11.9731 20.6861 12.0496 20.6869 12.128V15.2H18.6869V11.612ZM12.6869 10C12.6867 9.93648 12.7018 9.87379 12.7309 9.81726C12.76 9.76074 12.8022 9.71203 12.8541 9.67525C12.9049 9.63783 12.9639 9.61324 13.0263 9.60356C13.0886 9.59388 13.1524 9.5994 13.2121 9.61965L15.2121 10.288C15.2918 10.3147 15.361 10.3657 15.4101 10.4339C15.4591 10.5021 15.4854 10.584 15.4853 10.668V15.2H12.6869V10ZM3.08689 15.2H2.28689C2.00519 15.2017 1.72903 15.2785 1.48689 15.4224V6.00005H3.08689V15.2ZM1.48689 4.00005C1.48689 3.89396 1.52903 3.79222 1.60405 3.71721C1.67906 3.64219 1.7808 3.60005 1.88689 3.60005H9.88689C9.99298 3.60005 10.0947 3.64219 10.1697 3.71721C10.2447 3.79222 10.2869 3.89396 10.2869 4.00005V4.80005C10.2869 4.90614 10.2447 5.00788 10.1697 5.08289C10.0947 5.15791 9.99298 5.20005 9.88689 5.20005H1.48689V4.00005ZM2.28689 16.0001H23.0869C23.2991 16.0001 23.5025 16.0843 23.6526 16.2344C23.8026 16.3844 23.8869 16.5879 23.8869 16.8001V17.6001C23.8869 17.8122 23.8026 18.0157 23.6526 18.1657C23.5025 18.3158 23.2991 18.4001 23.0869 18.4001H2.28689C2.07472 18.4001 1.87123 18.3158 1.7212 18.1657C1.57118 18.0157 1.48689 17.8122 1.48689 17.6001V16.8001C1.48689 16.5879 1.57118 16.3844 1.7212 16.2344C1.87123 16.0843 2.07472 16.0001 2.28689 16.0001Z" fill="white"/>
</g>
<defs>
<clipPath id="clip0_39051_24185">
<rect width="24" height="24" fill="white" transform="translate(0.68689)"/>
</clipPath>
</defs>
</svg>
