<svg width="25" height="24" viewBox="0 0 25 24" fill="none" xmlns="http://www.w3.org/2000/svg">
<g clip-path="url(#clip0_39051_24186)">
<path d="M24.5309 13.3656C24.5249 13.1788 24.4529 13.0002 24.3275 12.8616C24.2022 12.723 24.0317 12.6334 23.8465 12.6088L23.2133 12.52C20.9021 12.1944 16.5993 11.588 15.1097 10.8428C13.3677 9.97199 11.8485 9.10839 11.0981 8.67079C11.0036 8.61606 10.899 8.58125 10.7906 8.56848C10.6822 8.55571 10.5723 8.56527 10.4677 8.59655C10.3631 8.62784 10.2661 8.6802 10.1825 8.75041C10.0989 8.82061 10.0306 8.90718 9.98168 9.00479L9.54408 9.87999C9.48392 10.0008 9.45543 10.1349 9.46131 10.2697C9.46719 10.4046 9.50723 10.5357 9.57768 10.6508C7.18328 11.8152 4.58848 9.78919 3.81288 9.10239C3.59375 8.90795 3.31105 8.80039 3.01808 8.79999H2.38688C2.10973 8.80076 1.84135 8.89719 1.62708 9.07297C1.41281 9.24876 1.2658 9.49313 1.21088 9.76479L0.938884 11.12V11.1264L0.936484 11.1324C0.868884 11.5404 0.530884 13.5876 0.530884 14V15.6C0.530884 16.0243 0.699455 16.4313 0.999513 16.7314C1.29957 17.0314 1.70654 17.2 2.13088 17.2H20.1309C20.4805 17.2 23.5709 17.16 24.4637 15.822C24.5074 15.7562 24.5308 15.679 24.5309 15.6C24.5309 15.3716 24.5309 16.4276 24.5309 13.3656ZM10.6953 9.35999C11.4553 9.80199 12.9897 10.6756 14.7521 11.5568C16.3581 12.3596 20.5797 12.9568 23.1017 13.3104L23.7309 13.3976V13.4H23.7273C20.5429 14.1284 12.5153 14.0616 9.83048 14.0164C10.6498 13.5636 11.5289 13.2284 12.4417 13.0208C12.5958 12.9798 12.7341 12.8937 12.8389 12.7735C12.9437 12.6533 13.0102 12.5045 13.0298 12.3463C13.0495 12.188 13.0214 12.0275 12.9492 11.8853C12.8769 11.7432 12.7639 11.6258 12.6245 11.5484L10.2597 10.2348L10.6953 9.35999ZM2.38688 9.59999H3.01808C3.11557 9.59936 3.20981 9.635 3.28248 9.69999C3.96248 10.3024 5.88248 11.8096 8.02808 11.8096C8.82711 11.8111 9.61068 11.5895 10.2905 11.1696L12.2373 12.2496C10.3109 12.76 9.12088 13.3476 8.68808 14H5.61328C4.82808 11.8144 2.71248 11.0936 1.80208 10.8832L1.99448 9.92319C2.01229 9.83218 2.06116 9.75019 2.13274 9.69123C2.20431 9.63228 2.29415 9.60003 2.38688 9.59999ZM1.65848 11.6724C2.40088 11.8536 4.04008 12.4216 4.75768 13.9964C3.6175 14.007 2.47802 13.9357 1.34808 13.7828C1.39608 13.3412 1.53848 12.4144 1.65848 11.6724ZM20.1309 16.4H2.13088C1.91871 16.4 1.71523 16.3157 1.5652 16.1657C1.41517 16.0156 1.33088 15.8122 1.33088 15.6V14.5908C2.65608 14.7717 3.99405 14.8416 5.33088 14.8H8.92768C9.12568 14.8052 10.7677 14.8464 12.9485 14.8464C16.4229 14.8464 21.2485 14.7404 23.7309 14.2168V15.466C23.1413 16.1428 21.2393 16.4 20.1309 16.4Z" fill="white"/>
</g>
<defs>
<clipPath id="clip0_39051_24186">
<rect width="24" height="24" fill="white" transform="translate(0.530884)"/>
</clipPath>
</defs>
</svg>
