<svg width="24" height="24" viewBox="0 0 24 24" fill="none" xmlns="http://www.w3.org/2000/svg">
<path d="M23.2497 14.9796C23.2485 14.7342 23.2166 13.6863 22.7651 13.2349C22.2803 12.75 22.2211 12.75 19.125 12.75C16.3413 12.75 13.6467 10.0151 12.288 8.385C11.934 7.93609 11.6353 7.44623 11.3983 6.92599C10.9693 6.06409 10.5641 5.25 9.375 5.25C8.18591 5.25 7.875 5.29466 7.875 6.375C7.875 7.32495 7.62964 7.875 6.375 7.875C6.1759 7.88292 5.97731 7.84954 5.79174 7.77696C5.60616 7.70438 5.43762 7.59418 5.29672 7.45328C5.15582 7.31238 5.04562 7.14384 4.97304 6.95826C4.90046 6.77269 4.86708 6.5741 4.875 6.375C4.875 6.27554 4.83549 6.18016 4.76516 6.10983C4.69484 6.03951 4.59946 6 4.5 6C3.79875 6 2.625 6 2.625 7.5V9C2.6457 9.22478 2.60637 9.45103 2.51102 9.65563C2.41566 9.86023 2.26771 10.0359 2.08226 10.1646C2.01997 10.1957 1.96759 10.2436 1.93099 10.3028C1.89438 10.3621 1.87499 10.4304 1.875 10.5V13.9938C1.54177 14.2439 1.26806 14.5648 1.07355 14.9332C0.879039 15.3017 0.768543 15.7087 0.75 16.125C0.75 17.7687 1.45091 18.75 2.625 18.75H19.875C20.347 18.7793 20.8196 18.7056 21.2603 18.534C21.7009 18.3624 22.0989 18.097 22.4268 17.7562C23.3792 16.6921 23.2678 15.1692 23.2497 14.9796ZM13.0984 10.3713L12.1099 11.3599C12.0741 11.3945 12.0455 11.4358 12.0258 11.4816C12.0062 11.5273 11.9958 11.5766 11.9954 11.6263C11.995 11.6761 12.0045 11.7255 12.0233 11.7716C12.0422 11.8177 12.07 11.8596 12.1052 11.8948C12.1404 11.93 12.1823 11.9578 12.2284 11.9767C12.2745 11.9955 12.3239 12.005 12.3737 12.0046C12.4234 12.0042 12.4727 11.9938 12.5184 11.9742C12.5642 11.9545 12.6055 11.9259 12.6401 11.8901L13.6457 10.8846C13.8519 11.0704 14.0641 11.2545 14.2859 11.4338L13.2349 12.4849C13.1991 12.5195 13.1705 12.5608 13.1508 12.6066C13.1312 12.6523 13.1208 12.7016 13.1204 12.7513C13.12 12.8011 13.1295 12.8505 13.1483 12.8966C13.1672 12.9427 13.195 12.9846 13.2302 13.0198C13.2654 13.055 13.3073 13.0828 13.3534 13.1017C13.3995 13.1205 13.4489 13.13 13.4987 13.1296C13.5484 13.1292 13.5977 13.1188 13.6434 13.0992C13.6892 13.0795 13.7305 13.0509 13.7651 13.0151L14.888 11.8923C15.12 12.0592 15.3591 12.217 15.6032 12.3665L14.7349 13.2349C14.6991 13.2695 14.6705 13.3108 14.6508 13.3566C14.6312 13.4023 14.6208 13.4516 14.6204 13.5013C14.62 13.5511 14.6295 13.6005 14.6483 13.6466C14.6672 13.6927 14.695 13.7346 14.7302 13.7698C14.7654 13.805 14.8073 13.8328 14.8534 13.8517C14.8995 13.8705 14.9489 13.88 14.9987 13.8796C15.0484 13.8792 15.0977 13.8688 15.1434 13.8492C15.1892 13.8295 15.2305 13.8009 15.2651 13.7651L16.2814 12.7489C16.5509 12.8844 16.8279 13.0046 17.111 13.1087L16.6099 13.6099C16.5741 13.6445 16.5455 13.6858 16.5258 13.7316C16.5062 13.7773 16.4958 13.8266 16.4954 13.8763C16.495 13.9261 16.5045 13.9755 16.5233 14.0216C16.5422 14.0677 16.57 14.1096 16.6052 14.1448C16.6404 14.18 16.6823 14.2078 16.7284 14.2267C16.7745 14.2455 16.8239 14.255 16.8737 14.2546C16.9234 14.2542 16.9727 14.2438 17.0184 14.2242C17.0642 14.2045 17.1055 14.1759 17.1401 14.1401L17.8901 13.3901C17.8988 13.3787 17.9067 13.3668 17.9139 13.3544C18.3107 13.4488 18.7171 13.4976 19.125 13.5C21.9697 13.5 21.9747 13.505 22.2349 13.7651C22.412 14.0933 22.5017 14.4616 22.4952 14.8345C21.7498 15.4259 20.8266 15.7485 19.875 15.75H8.625C8.09291 15.75 7.9275 15.4583 7.68038 14.9429C7.56687 14.6728 7.40743 14.4244 7.20915 14.2087L9.60187 10.1347C9.70829 9.91844 9.77181 9.6836 9.78892 9.44318C10.4462 9.2021 11.1343 9.05528 11.8327 9.00709C11.8902 9.07489 11.946 9.14149 12.0075 9.2121L10.9849 10.2349C10.9491 10.2695 10.9205 10.3108 10.9008 10.3566C10.8812 10.4023 10.8708 10.4516 10.8704 10.5013C10.87 10.5511 10.8795 10.6005 10.8983 10.6466C10.9172 10.6927 10.945 10.7346 10.9802 10.7698C11.0154 10.805 11.0573 10.8328 11.1034 10.8517C11.1495 10.8705 11.1989 10.88 11.2487 10.8796C11.2984 10.8792 11.3477 10.8688 11.3934 10.8492C11.4392 10.8295 11.4805 10.8009 11.5151 10.7651L12.5115 9.76875C12.6961 9.96637 12.8907 10.1675 13.0984 10.3713ZM2.625 12.75C2.95664 12.751 3.27858 12.862 3.54039 13.0656C3.80219 13.2692 3.98907 13.5538 4.07175 13.875H2.625V12.75ZM4.84125 13.875C4.75237 13.3513 4.48118 12.8758 4.07562 12.5327C3.67005 12.1896 3.15624 12.0009 2.625 12V10.9425L4.43827 11.2447C4.76995 11.303 5.10588 11.3338 5.44264 11.3368C6.51416 11.3368 7.10906 10.9554 7.86934 10.468C8.16491 10.2783 8.49731 10.0677 8.89924 9.85151L6.52654 13.89C6.47637 13.882 6.42576 13.877 6.375 13.875H4.84125ZM8.63415 6.02362C8.88037 6.00038 9.1278 5.99249 9.375 6C10.0702 6 10.292 6.38625 10.7269 7.26C10.8997 7.61863 11.0928 7.96709 11.3054 8.3037C10.7565 8.37341 10.2162 8.49906 9.69285 8.6787C9.60066 8.41218 9.44939 8.16996 9.25035 7.97017L8.52818 7.248C8.59674 6.96218 8.62927 6.6689 8.625 6.375C8.625 6.24518 8.625 6.10125 8.63415 6.02362ZM3.375 9V7.5C3.375 6.89411 3.58339 6.77625 4.15796 6.75476C4.22057 7.2899 4.48464 7.78111 4.89646 8.12851C5.30829 8.47592 5.83696 8.65344 6.375 8.625C7.30714 8.625 7.85527 8.34919 8.17849 7.95874L8.7204 8.50069C8.84888 8.62955 8.94448 8.78743 8.99914 8.961C8.94352 8.98691 8.88803 9.01166 8.83226 9.03956C8.36166 9.27922 7.905 9.54533 7.46449 9.83663C6.5451 10.4262 6.0381 10.7508 4.56173 10.5051L3.02704 10.2494C3.26448 9.87668 3.38561 9.44176 3.375 9ZM21.8648 17.2595C21.6058 17.5186 21.2939 17.7188 20.9506 17.8466C20.6072 17.9743 20.2404 18.0267 19.875 18H2.625C1.60969 18 1.5 16.6888 1.5 16.125C1.54423 15.5462 1.81347 15.0077 2.25 14.625H6.375C6.67016 14.625 6.77625 14.7914 7.00395 15.2668C7.25318 15.7875 7.59465 16.5 8.625 16.5H19.875C20.7958 16.501 21.6987 16.2452 22.4822 15.7614C22.4328 16.3118 22.2175 16.8342 21.8648 17.2595ZM4.875 15.75V16.5C4.875 16.5995 4.83549 16.6948 4.76516 16.7652C4.69484 16.8355 4.59946 16.875 4.5 16.875C4.40054 16.875 4.30516 16.8355 4.23484 16.7652C4.16451 16.6948 4.125 16.5995 4.125 16.5V15.75C4.125 15.6505 4.16451 15.5552 4.23484 15.4848C4.30516 15.4145 4.40054 15.375 4.5 15.375C4.59946 15.375 4.69484 15.4145 4.76516 15.4848C4.83549 15.5552 4.875 15.6505 4.875 15.75ZM3.375 15.75V16.5C3.375 16.5995 3.33549 16.6948 3.26516 16.7652C3.19484 16.8355 3.09946 16.875 3 16.875C2.90054 16.875 2.80516 16.8355 2.73484 16.7652C2.66451 16.6948 2.625 16.5995 2.625 16.5V15.75C2.625 15.6505 2.66451 15.5552 2.73484 15.4848C2.80516 15.4145 2.90054 15.375 3 15.375C3.09946 15.375 3.19484 15.4145 3.26516 15.4848C3.33549 15.5552 3.375 15.6505 3.375 15.75ZM6.375 15.75V16.5C6.375 16.5995 6.33549 16.6948 6.26517 16.7652C6.19484 16.8355 6.09946 16.875 6 16.875C5.90054 16.875 5.80516 16.8355 5.73484 16.7652C5.66451 16.6948 5.625 16.5995 5.625 16.5V15.75C5.625 15.6505 5.66451 15.5552 5.73484 15.4848C5.80516 15.4145 5.90054 15.375 6 15.375C6.09946 15.375 6.19484 15.4145 6.26517 15.4848C6.33549 15.5552 6.375 15.6505 6.375 15.75Z" fill="white"/>
</svg>
