<svg width="25" height="24" viewBox="0 0 25 24" fill="none" xmlns="http://www.w3.org/2000/svg">
<g clip-path="url(#clip0_39051_24184)">
<path d="M1.8401 19.3368C1.86215 19.5994 1.98168 19.8442 2.17516 20.0231C2.36865 20.2019 2.62208 20.3019 2.88558 20.3033C3.14907 20.3047 3.40355 20.2074 3.59894 20.0306C3.79432 19.8538 3.91645 19.6103 3.9413 19.348L4.6213 11.868C6.0889 12.748 7.8253 14.0568 8.7381 15.702C9.0881 16.3304 9.3745 16.8716 9.6213 17.342C10.7413 19.4804 11.0825 20.308 12.6873 20.308C14.0937 20.308 21.6873 19.418 23.9821 19.1452C24.1765 19.1219 24.3557 19.0281 24.4856 18.8815C24.6155 18.7349 24.6871 18.5458 24.6869 18.35C24.6864 18.0207 24.584 17.6995 24.3937 17.4307C24.2034 17.1619 23.9346 16.9587 23.6241 16.8488L18.4401 15.0168C18.2018 14.9272 17.9415 14.9145 17.6957 14.9806C17.4498 15.0467 17.2309 15.1882 17.0697 15.3852C16.9725 15.508 16.6789 15.7396 15.8085 15.9136C15.0453 16.0664 13.5369 16.2808 12.2345 16.4588L4.3765 4.15559C4.27504 3.99586 4.13724 3.86239 3.97435 3.76607C3.81147 3.66975 3.62811 3.61332 3.43926 3.60139C3.2504 3.58945 3.0614 3.62235 2.88768 3.69739C2.71397 3.77244 2.56046 3.8875 2.4397 4.03319C1.4397 5.23319 -0.0535018 7.59319 1.0937 10.0024L1.8401 19.3368ZM3.1449 19.274C3.13822 19.3368 3.10863 19.395 3.06178 19.4374C3.01493 19.4799 2.9541 19.5036 2.8909 19.504C2.82717 19.5044 2.76563 19.4807 2.71861 19.4377C2.67158 19.3947 2.64254 19.3355 2.6373 19.272L1.9369 10.514C2.3945 10.7056 3.0813 11.0136 3.8569 11.4312L3.1449 19.274ZM15.9669 16.698C16.8337 16.5248 17.3997 16.258 17.6997 15.8804C17.7582 15.8157 17.8353 15.7705 17.9203 15.7509C18.0054 15.7314 18.0944 15.7385 18.1753 15.7712L23.3593 17.6032C23.5132 17.6582 23.6464 17.7593 23.7408 17.8927C23.8352 18.0261 23.8862 18.1854 23.8869 18.3488C19.1821 18.9088 13.7689 19.506 12.6869 19.506C11.7369 19.506 11.5561 19.2988 10.5965 17.4768C11.5629 17.3524 14.6069 16.9704 15.9669 16.698ZM3.0537 4.54679C3.09469 4.49746 3.14672 4.45846 3.20558 4.43296C3.26444 4.40746 3.32847 4.39616 3.3925 4.39999C3.455 4.40385 3.51568 4.4226 3.56947 4.45468C3.62325 4.48676 3.66859 4.53123 3.7017 4.58439L11.3577 16.572C11.0149 16.6156 10.6753 16.6596 10.3453 16.702L10.1993 16.7208C9.9801 16.306 9.7305 15.8388 9.4369 15.3108C7.9937 12.7108 4.5109 10.6308 1.7785 9.58679C0.886898 7.59999 2.1857 5.58519 3.0537 4.54679Z" fill="white"/>
</g>
<defs>
<clipPath id="clip0_39051_24184">
<rect width="24" height="24" fill="white" transform="translate(0.68689)"/>
</clipPath>
</defs>
</svg>
